<svg width="1694" height="354" viewBox="0 0 1694 354" fill="none" xmlns="http://www.w3.org/2000/svg">
<path d="M740 149V13" stroke="black" stroke-width="5"/>
<path d="M168.549 14.028C171.453 14.028 174.11 14.5863 176.522 15.703C178.934 16.775 181.011 18.2267 182.753 20.058L176.723 26.423C175.383 25.351 174.155 24.5693 173.038 24.078C171.922 23.5867 170.693 23.341 169.353 23.341C167.567 23.341 166.137 23.81 165.065 24.748C163.993 25.6413 163.189 27.2047 162.653 29.438C162.162 31.6267 161.916 34.7087 161.916 38.684C161.916 42.8827 162.073 46.0763 162.385 48.265C162.743 50.409 163.256 51.883 163.926 52.687C164.641 53.491 165.624 53.893 166.874 53.893C168.036 53.893 169.175 53.5357 170.291 52.821V43.709H167.008L165.802 34.731H182.619V58.047C180.475 59.6997 178.019 60.995 175.249 61.933C172.48 62.8263 169.8 63.273 167.209 63.273C160.554 63.273 155.73 61.3077 152.737 57.377C149.789 53.4017 148.315 47.1483 148.315 38.617C148.315 33.0783 149.164 28.4777 150.861 24.815C152.603 21.1523 154.993 18.45 158.03 16.708C161.068 14.9213 164.574 14.028 168.549 14.028ZM220.854 45.183H219.648V62H206.382V15.368H220.653C232.713 15.368 238.743 20.2813 238.743 30.108C238.743 32.7433 238.251 35.1553 237.269 37.344C236.286 39.5327 234.656 41.297 232.378 42.637L241.49 62H227.554L220.854 45.183ZM219.648 36.272H220.854C222.506 36.272 223.668 35.803 224.338 34.865C225.008 33.8823 225.343 32.2967 225.343 30.108C225.343 28.1427 224.963 26.7133 224.204 25.82C223.444 24.882 222.261 24.413 220.653 24.413H219.648V36.272ZM282.584 62L281.244 52.754H273.137L271.797 62H258.598L269.452 15.368H285.13L295.917 62H282.584ZM274.477 43.508H279.904L277.157 24.681L274.477 43.508ZM349.021 62H333.008L325.973 26.825L326.174 28.433C326.621 31.7383 326.978 34.8203 327.246 37.679C327.514 40.493 327.648 43.5973 327.648 46.992V62H316.526V15.368H332.472L339.574 50.61C338.993 46.6793 338.547 43.374 338.234 40.694C337.966 37.9693 337.832 34.7757 337.832 31.113V15.368H349.021V62ZM386.475 15.368C390.584 15.368 394.135 15.971 397.128 17.177C400.165 18.3383 402.6 20.6163 404.431 24.011C406.307 27.4057 407.245 32.2297 407.245 38.483C407.245 47.193 405.458 53.29 401.885 56.774C398.312 60.258 393.354 62 387.011 62H372.874V15.368H386.475ZM386.14 24.681V52.62H387.748C389.267 52.62 390.45 52.1957 391.299 51.347C392.148 50.4983 392.751 49.069 393.108 47.059C393.51 45.0043 393.711 42.1457 393.711 38.483C393.711 34.8203 393.51 32.0063 393.108 30.041C392.751 28.0757 392.148 26.691 391.299 25.887C390.495 25.083 389.378 24.681 387.949 24.681H386.14ZM475.02 15.368V51.816H489.09L487.75 62H461.754V15.368H475.02ZM537.831 15.368L536.491 24.547H524.498V33.86H535.084V42.838H524.498V52.687H537.295V62H511.232V15.368H537.831ZM573.722 15.368C577.831 15.368 581.382 15.971 584.375 17.177C587.412 18.3383 589.846 20.6163 591.678 24.011C593.554 27.4057 594.492 32.2297 594.492 38.483C594.492 47.193 592.705 53.29 589.132 56.774C585.558 60.258 580.6 62 574.258 62H560.121V15.368H573.722ZM573.387 24.681V52.62H574.995C576.513 52.62 577.697 52.1957 578.546 51.347C579.394 50.4983 579.997 49.069 580.355 47.059C580.757 45.0043 580.958 42.1457 580.958 38.483C580.958 34.8203 580.757 32.0063 580.355 30.041C579.997 28.0757 579.394 26.691 578.546 25.887C577.742 25.083 576.625 24.681 575.196 24.681H573.387ZM637.078 14.028C639.982 14.028 642.639 14.5863 645.051 15.703C647.463 16.775 649.54 18.2267 651.282 20.058L645.252 26.423C643.912 25.351 642.684 24.5693 641.567 24.078C640.451 23.5867 639.222 23.341 637.882 23.341C636.096 23.341 634.666 23.81 633.594 24.748C632.522 25.6413 631.718 27.2047 631.182 29.438C630.691 31.6267 630.445 34.7087 630.445 38.684C630.445 42.8827 630.602 46.0763 630.914 48.265C631.272 50.409 631.785 51.883 632.455 52.687C633.17 53.491 634.153 53.893 635.403 53.893C636.565 53.893 637.704 53.5357 638.82 52.821V43.709H635.537L634.331 34.731H651.148V58.047C649.004 59.6997 646.548 60.995 643.778 61.933C641.009 62.8263 638.329 63.273 635.738 63.273C629.083 63.273 624.259 61.3077 621.266 57.377C618.318 53.4017 616.844 47.1483 616.844 38.617C616.844 33.0783 617.693 28.4777 619.39 24.815C621.132 21.1523 623.522 18.45 626.559 16.708C629.597 14.9213 633.103 14.028 637.078 14.028ZM701.51 15.368L700.17 24.547H688.177V33.86H698.763V42.838H688.177V52.687H700.974V62H674.911V15.368H701.51ZM147.724 142V95.368H173.318L171.978 104.547H160.99V115.267H170.705V124.513H160.99V142H147.724ZM198.005 142L196.665 132.754H188.558L187.218 142H174.019L184.873 95.368H200.551L211.338 142H198.005ZM189.898 123.508H195.325L192.578 104.681L189.898 123.508ZM260.021 142H247.492L247.559 125.116C247.559 118.863 247.648 112.721 247.827 106.691L244.343 137.243H231.881L228.196 106.691C228.508 113.748 228.665 119.89 228.665 125.116V142H216.337L218.95 95.368H235.03L238.313 125.853L241.127 95.368H257.408L260.021 142ZM281.519 95.368V142H268.253V95.368H281.519ZM304.226 95.368V131.816H318.296L316.956 142H290.96V95.368H304.226ZM354.586 95.368L342.392 124.714V142H329.126V124.781L316.932 95.368H330.734L335.893 114.731L341.186 95.368H354.586ZM391.59 95.368C395.7 95.368 399.251 95.971 402.243 97.177C405.281 98.3383 407.715 100.616 409.546 104.011C411.422 107.406 412.36 112.23 412.36 118.483C412.36 127.193 410.574 133.29 407 136.774C403.427 140.258 398.469 142 392.126 142H377.989V95.368H391.59ZM391.255 104.681V132.62H392.863C394.382 132.62 395.566 132.196 396.414 131.347C397.263 130.498 397.866 129.069 398.223 127.059C398.625 125.004 398.826 122.146 398.826 118.483C398.826 114.82 398.625 112.006 398.223 110.041C397.866 108.076 397.263 106.691 396.414 105.887C395.61 105.083 394.494 104.681 393.064 104.681H391.255ZM447.644 95.368L446.304 104.547H434.311V113.86H444.897V122.838H434.311V132.687H447.108V142H421.045V95.368H447.644ZM488.024 142H472.011L464.976 106.825L465.177 108.433C465.624 111.738 465.981 114.82 466.249 117.679C466.517 120.493 466.651 123.597 466.651 126.992V142H455.529V95.368H471.475L478.577 130.61C477.996 126.679 477.55 123.374 477.237 120.694C476.969 117.969 476.835 114.776 476.835 111.113V95.368H488.024V142ZM527.153 95.368L525.813 105.217H517.706V142H504.44V105.217H495.663V95.368H527.153ZM547.447 95.368V142H534.181V95.368H547.447ZM571.828 94.028C575 94.028 577.791 94.564 580.203 95.636C582.615 96.6633 584.782 98.2267 586.702 100.326L581.208 107.026C578.573 104.659 576.027 103.475 573.57 103.475C572.275 103.475 571.315 103.81 570.689 104.48C570.064 105.15 569.751 106.043 569.751 107.16C569.751 108.277 570.176 109.192 571.024 109.907C571.873 110.622 573.615 111.582 576.25 112.788C579.02 114.083 581.186 115.379 582.749 116.674C584.357 117.925 585.563 119.466 586.367 121.297C587.171 123.084 587.573 125.339 587.573 128.064C587.573 131.057 586.881 133.714 585.496 136.037C584.156 138.36 582.213 140.169 579.667 141.464C577.121 142.715 574.129 143.34 570.689 143.34C567.027 143.34 563.9 142.715 561.309 141.464C558.763 140.213 556.485 138.538 554.475 136.439L560.639 129.538C562.247 130.967 563.744 132.039 565.128 132.754C566.558 133.469 568.032 133.826 569.55 133.826C572.409 133.826 573.838 132.307 573.838 129.27C573.838 127.885 573.414 126.724 572.565 125.786C571.717 124.848 570.265 123.91 568.21 122.972C563.699 120.962 560.55 118.863 558.763 116.674C556.977 114.485 556.083 111.716 556.083 108.366C556.083 105.463 556.753 102.939 558.093 100.795C559.478 98.6063 561.354 96.9313 563.721 95.77C566.133 94.6087 568.836 94.028 571.828 94.028ZM624.062 95.368L622.722 105.217H614.615V142H601.349V105.217H592.572V95.368H624.062ZM645.562 125.183H644.356V142H631.09V95.368H645.361C657.421 95.368 663.451 100.281 663.451 110.108C663.451 112.743 662.959 115.155 661.977 117.344C660.994 119.533 659.364 121.297 657.086 122.637L666.198 142H652.262L645.562 125.183ZM644.356 116.272H645.562C647.214 116.272 648.376 115.803 649.046 114.865C649.716 113.882 650.051 112.297 650.051 110.108C650.051 108.143 649.671 106.713 648.912 105.82C648.152 104.882 646.969 104.413 645.361 104.413H644.356V116.272ZM704.333 95.368L692.139 124.714V142H678.873V124.781L666.679 95.368H680.481L685.64 114.731L690.933 95.368H704.333Z" fill="black"/>
<path d="M780.7 47.1V116H771.6V47.1H780.7ZM811.9 47.1L790.9 78.6L813.4 116H803.1L781.1 79.2L802.2 47.1H811.9ZM860.614 47.1L842.414 89.5V116H833.314V89.6L815.114 47.1H824.814L838.114 81.5L851.314 47.1H860.614ZM879.013 47.1V108H901.913L900.913 116H869.913V47.1H879.013ZM943.638 47.1L942.638 54.4H921.138V77.3H939.838V84.6H921.138V108.7H944.038V116H912.038V47.1H943.638ZM1010.69 116L1006.59 98.5H985.986L981.886 116H972.886L990.786 47.1H1002.09L1019.99 116H1010.69ZM987.686 91.2H1004.89L996.286 54.7L987.686 91.2ZM1105.51 116H1096.91L1095.11 84.7C1094.24 71.7667 1093.87 62.3333 1094.01 56.4L1082.31 108.2H1073.81L1061.51 56.3L1061.61 60.9C1061.61 66.1 1061.34 74.2333 1060.81 85.3L1059.11 116H1050.51L1055.21 47.1H1067.01L1078.21 97.6L1088.81 47.1H1100.91L1105.51 116ZM1159.72 97.5C1159.72 101.167 1158.92 104.5 1157.32 107.5C1155.79 110.5 1153.49 112.867 1150.42 114.6C1147.36 116.333 1143.69 117.2 1139.42 117.2C1132.96 117.2 1127.96 115.367 1124.42 111.7C1120.89 107.967 1119.12 103.233 1119.12 97.5V47.1H1128.22V96.8C1128.22 105.267 1131.96 109.5 1139.42 109.5C1146.89 109.5 1150.62 105.267 1150.62 96.8V47.1H1159.72V97.5ZM1184.53 47.1V108H1207.43L1206.43 116H1175.43V47.1H1184.53ZM1230.46 47.1C1236.06 47.1 1240.89 48 1244.96 49.8C1249.09 51.5333 1252.42 54.9333 1254.96 60C1257.56 65 1258.86 72.0667 1258.86 81.2C1258.86 94.2 1256.32 103.267 1251.26 108.4C1246.19 113.467 1239.76 116 1231.96 116H1217.56V47.1H1230.46ZM1226.66 54.4V108.8H1232.56C1235.89 108.8 1238.76 108.067 1241.16 106.6C1243.62 105.133 1245.59 102.4 1247.06 98.4C1248.59 94.3333 1249.36 88.6 1249.36 81.2C1249.36 73.6667 1248.56 67.9667 1246.96 64.1C1245.42 60.1667 1243.42 57.5667 1240.96 56.3C1238.56 55.0333 1235.62 54.4 1232.16 54.4H1226.66ZM1304.08 47.1L1303.08 54.4H1281.58V77.3H1300.28V84.6H1281.58V108.7H1304.48V116H1272.48V47.1H1304.08ZM1348.23 116L1334.83 86.5C1334.37 86.5667 1333.67 86.6 1332.73 86.6H1326.53V116H1317.43V47.1H1331.23C1339.3 47.1 1345.3 48.7667 1349.23 52.1C1353.17 55.4333 1355.13 60.2333 1355.13 66.5C1355.13 70.9 1354.1 74.7 1352.03 77.9C1349.97 81.0333 1347 83.3333 1343.13 84.8L1358.23 116H1348.23ZM1331.93 79.6C1336.73 79.6 1340.2 78.5667 1342.33 76.5C1344.47 74.3667 1345.53 71.0333 1345.53 66.5C1345.53 62.3 1344.43 59.2333 1342.23 57.3C1340.03 55.3 1336.33 54.3 1331.13 54.3H1326.53V79.6H1331.93ZM1371.83 104C1373.63 104 1375.09 104.633 1376.23 105.9C1377.36 107.1 1377.93 108.633 1377.93 110.5C1377.93 111.367 1377.76 112.4 1377.43 113.6C1377.09 114.733 1376.66 116 1376.13 117.4L1370.73 132.4H1365.03L1368.53 116.1C1367.59 115.433 1366.86 114.633 1366.33 113.7C1365.79 112.7 1365.53 111.633 1365.53 110.5C1365.53 108.633 1366.09 107.1 1367.23 105.9C1368.43 104.633 1369.96 104 1371.83 104ZM1426.63 47.1C1432.23 47.1 1437.06 48 1441.13 49.8C1445.26 51.5333 1448.6 54.9333 1451.13 60C1453.73 65 1455.03 72.0667 1455.03 81.2C1455.03 94.2 1452.5 103.267 1447.43 108.4C1442.36 113.467 1435.93 116 1428.13 116H1413.73V47.1H1426.63ZM1422.83 54.4V108.8H1428.73C1432.06 108.8 1434.93 108.067 1437.33 106.6C1439.8 105.133 1441.76 102.4 1443.23 98.4C1444.76 94.3333 1445.53 88.6 1445.53 81.2C1445.53 73.6667 1444.73 67.9667 1443.13 64.1C1441.6 60.1667 1439.6 57.5667 1437.13 56.3C1434.73 55.0333 1431.8 54.4 1428.33 54.4H1422.83ZM1481.55 47.1C1487.15 47.1 1491.98 48 1496.05 49.8C1500.18 51.5333 1503.51 54.9333 1506.05 60C1508.65 65 1509.95 72.0667 1509.95 81.2C1509.95 94.2 1507.41 103.267 1502.35 108.4C1497.28 113.467 1490.85 116 1483.05 116H1468.65V47.1H1481.55ZM1477.75 54.4V108.8H1483.65C1486.98 108.8 1489.85 108.067 1492.25 106.6C1494.71 105.133 1496.68 102.4 1498.15 98.4C1499.68 94.3333 1500.45 88.6 1500.45 81.2C1500.45 73.6667 1499.65 67.9667 1498.05 64.1C1496.51 60.1667 1494.51 57.5667 1492.05 56.3C1489.65 55.0333 1486.71 54.4 1483.25 54.4H1477.75ZM1538.56 46C1542.23 46 1545.46 46.6667 1548.26 48C1551.13 49.2667 1553.76 51.2333 1556.16 53.9L1551.36 59.1C1549.3 57.1 1547.26 55.6667 1545.26 54.8C1543.26 53.8667 1541.06 53.4 1538.66 53.4C1535.8 53.4 1533.46 54.3333 1531.66 56.2C1529.93 58 1529.06 60.4 1529.06 63.4C1529.06 66.3333 1529.9 68.7333 1531.56 70.6C1533.3 72.4667 1536.53 74.3 1541.26 76.1C1546.73 78.1667 1550.86 80.7333 1553.66 83.8C1556.46 86.8667 1557.86 91.2333 1557.86 96.9C1557.86 100.567 1557 103.967 1555.26 107.1C1553.6 110.167 1551.2 112.633 1548.06 114.5C1544.93 116.3 1541.3 117.2 1537.16 117.2C1533.03 117.2 1529.36 116.433 1526.16 114.9C1522.96 113.367 1520.06 111.167 1517.46 108.3L1522.36 103.1C1524.7 105.233 1527 106.867 1529.26 108C1531.6 109.133 1534.16 109.7 1536.96 109.7C1540.43 109.7 1543.2 108.567 1545.26 106.3C1547.33 104.033 1548.36 100.967 1548.36 97.1C1548.36 93.7667 1547.53 91.1 1545.86 89.1C1544.2 87.1 1541.1 85.2667 1536.56 83.6C1530.76 81.4 1526.5 78.7333 1523.76 75.6C1521.1 72.4667 1519.76 68.5333 1519.76 63.8C1519.76 60.5333 1520.56 57.5333 1522.16 54.8C1523.76 52.0667 1526 49.9333 1528.86 48.4C1531.73 46.8 1534.96 46 1538.56 46Z" fill="black"/>
<path d="M183.783 261.75V265.98H180.948V273H175.728V265.98H164.928V262.155L172.083 242.085L176.763 243.795L170.508 261.75H175.773L176.403 254.055H180.948V261.75H183.783ZM200.539 242.76V273H195.139V248.295L189.739 252.255L187.264 248.745L195.589 242.76H200.539ZM222.003 252.885C223.323 252.885 224.508 253.26 225.558 254.01C226.638 254.76 227.478 255.885 228.078 257.385C228.708 258.855 229.023 260.625 229.023 262.695C229.023 266.115 228.228 268.8 226.638 270.75C225.048 272.7 222.888 273.675 220.158 273.675C213.918 273.675 210.798 268.8 210.798 259.05C210.798 255.6 211.233 252.615 212.103 250.095C212.973 247.545 214.203 245.595 215.793 244.245C217.413 242.865 219.318 242.175 221.508 242.175C223.638 242.175 225.498 242.82 227.088 244.11L225.063 247.44C223.953 246.66 222.828 246.27 221.688 246.27C220.188 246.27 218.973 247.11 218.043 248.79C217.113 250.47 216.573 252.93 216.423 256.17C217.773 253.98 219.633 252.885 222.003 252.885ZM220.113 269.535C221.253 269.535 222.093 268.98 222.633 267.87C223.203 266.76 223.503 265.065 223.533 262.785C223.533 260.625 223.263 259.095 222.723 258.195C222.213 257.265 221.478 256.8 220.518 256.8C219.768 256.8 219.033 257.1 218.313 257.7C217.623 258.3 216.993 259.125 216.423 260.175C216.453 262.515 216.588 264.36 216.828 265.71C217.098 267.06 217.488 268.035 217.998 268.635C218.538 269.235 219.243 269.535 220.113 269.535ZM267.175 241.905L266.59 246.18H257.455V255.09H265.42V259.32H257.455V268.68H267.175V273H251.74V241.905H267.175ZM303.934 273L298.444 260.445H297.904H295.699V273H289.984V241.905H297.319C304.819 241.905 308.569 244.95 308.569 251.04C308.569 252.93 308.149 254.61 307.309 256.08C306.469 257.52 305.209 258.615 303.529 259.365L310.099 273H303.934ZM297.589 256.305C299.359 256.305 300.634 255.885 301.414 255.045C302.224 254.205 302.629 252.87 302.629 251.04C302.629 249.33 302.209 248.085 301.369 247.305C300.559 246.495 299.209 246.09 297.319 246.09H295.699V256.305H297.589ZM323.633 241.905V273H317.918V241.905H323.633ZM353.021 241.905L345.821 273H338.666L331.196 241.905H337.001L342.311 267.96L347.396 241.905H353.021ZM376.036 241.905L375.451 246.18H366.316V255.09H374.281V259.32H366.316V268.68H376.036V273H360.601V241.905H376.036ZM398.969 273L393.479 260.445H392.939H390.734V273H385.019V241.905H392.354C399.854 241.905 403.604 244.95 403.604 251.04C403.604 252.93 403.184 254.61 402.344 256.08C401.504 257.52 400.244 258.615 398.564 259.365L405.134 273H398.969ZM392.624 256.305C394.394 256.305 395.669 255.885 396.449 255.045C397.259 254.205 397.664 252.87 397.664 251.04C397.664 249.33 397.244 248.085 396.404 247.305C395.594 246.495 394.244 246.09 392.354 246.09H390.734V256.305H392.624ZM434.654 241.275C436.454 241.275 438.044 241.59 439.424 242.22C440.804 242.85 442.079 243.795 443.249 245.055L440.594 248.115C439.664 247.275 438.749 246.645 437.849 246.225C436.979 245.805 436.049 245.595 435.059 245.595C433.919 245.595 433.019 245.955 432.359 246.675C431.699 247.365 431.369 248.28 431.369 249.42C431.369 250.56 431.714 251.49 432.404 252.21C433.094 252.93 434.444 253.68 436.454 254.46C439.034 255.51 440.924 256.74 442.124 258.15C443.354 259.56 443.969 261.555 443.969 264.135C443.969 265.905 443.564 267.525 442.754 268.995C441.944 270.435 440.774 271.575 439.244 272.415C437.744 273.255 435.989 273.675 433.979 273.675C431.909 273.675 430.109 273.315 428.579 272.595C427.049 271.845 425.654 270.795 424.394 269.445L427.274 266.295C428.354 267.255 429.389 267.99 430.379 268.5C431.369 269.01 432.449 269.265 433.619 269.265C434.999 269.265 436.064 268.845 436.814 268.005C437.594 267.135 437.984 265.965 437.984 264.495C437.984 263.205 437.639 262.155 436.949 261.345C436.289 260.505 435.044 259.74 433.214 259.05C430.454 257.94 428.459 256.665 427.229 255.225C426.029 253.785 425.429 251.985 425.429 249.825C425.429 248.175 425.819 246.705 426.599 245.415C427.409 244.125 428.519 243.12 429.929 242.4C431.339 241.65 432.914 241.275 434.654 241.275ZM468.735 241.905L468.105 246.405H461.715V273H456V246.405H449.34V241.905H468.735ZM490.4 273L484.91 260.445H484.37H482.165V273H476.45V241.905H483.785C491.285 241.905 495.035 244.95 495.035 251.04C495.035 252.93 494.615 254.61 493.775 256.08C492.935 257.52 491.675 258.615 489.995 259.365L496.565 273H490.4ZM484.055 256.305C485.825 256.305 487.1 255.885 487.88 255.045C488.69 254.205 489.095 252.87 489.095 251.04C489.095 249.33 488.675 248.085 487.835 247.305C487.025 246.495 485.675 246.09 483.785 246.09H482.165V256.305H484.055ZM519.818 241.905L519.233 246.18H510.098V255.09H518.063V259.32H510.098V268.68H519.818V273H504.383V241.905H519.818ZM544.236 241.905L543.651 246.18H534.516V255.09H542.481V259.32H534.516V268.68H544.236V273H528.801V241.905H544.236ZM570.274 241.905L569.644 246.405H563.254V273H557.539V246.405H550.879V241.905H570.274ZM577.332 266.655C578.292 266.655 579.072 266.985 579.672 267.645C580.302 268.275 580.617 269.085 580.617 270.075C580.617 270.495 580.542 270.945 580.392 271.425C580.272 271.875 580.107 272.385 579.897 272.955C579.687 273.495 579.552 273.87 579.492 274.08L577.107 280.695H574.002L575.622 273.09C574.542 272.31 574.002 271.32 574.002 270.12C574.002 269.13 574.317 268.305 574.947 267.645C575.577 266.985 576.372 266.655 577.332 266.655ZM614.513 241.275C616.223 241.275 617.753 241.59 619.103 242.22C620.453 242.82 621.728 243.705 622.928 244.875L620.048 247.845C619.118 247.035 618.248 246.465 617.438 246.135C616.628 245.775 615.713 245.595 614.693 245.595C612.713 245.595 611.153 246.48 610.013 248.25C608.903 250.02 608.348 253.08 608.348 257.43C608.348 260.49 608.543 262.89 608.933 264.63C609.353 266.34 609.953 267.54 610.733 268.23C611.543 268.92 612.593 269.265 613.883 269.265C615.233 269.265 616.463 268.89 617.573 268.14V259.725H614.063L613.478 255.45H623.018V270.66C621.728 271.59 620.288 272.325 618.698 272.865C617.138 273.375 615.548 273.63 613.928 273.63C610.058 273.63 607.163 272.325 605.243 269.715C603.323 267.075 602.363 262.98 602.363 257.43C602.363 253.83 602.888 250.83 603.938 248.43C605.018 246 606.473 244.2 608.303 243.03C610.133 241.86 612.203 241.275 614.513 241.275ZM646.602 273L641.112 260.445H640.572H638.367V273H632.652V241.905H639.987C647.487 241.905 651.237 244.95 651.237 251.04C651.237 252.93 650.817 254.61 649.977 256.08C649.137 257.52 647.877 258.615 646.197 259.365L652.767 273H646.602ZM640.257 256.305C642.027 256.305 643.302 255.885 644.082 255.045C644.892 254.205 645.297 252.87 645.297 251.04C645.297 249.33 644.877 248.085 644.037 247.305C643.227 246.495 641.877 246.09 639.987 246.09H638.367V256.305H640.257ZM674.536 273L673.006 265.71H664.996L663.511 273H657.796L665.626 241.905H672.556L680.341 273H674.536ZM665.896 261.39H672.151L669.001 246.27L665.896 261.39ZM707.344 273H700.054L692.179 247.53C692.419 249.69 692.599 251.685 692.719 253.515C692.869 255.315 692.944 257.46 692.944 259.95V273H687.904V241.905H695.149L703.024 267.375C702.844 266.295 702.664 264.765 702.484 262.785C702.334 260.805 702.259 258.795 702.259 256.755V241.905H707.344V273ZM724.613 241.905C727.223 241.905 729.473 242.31 731.363 243.12C733.283 243.9 734.828 245.43 735.998 247.71C737.198 249.96 737.798 253.155 737.798 257.295C737.798 263.145 736.628 267.225 734.288 269.535C731.978 271.845 728.948 273 725.198 273H717.683V241.905H724.613ZM723.398 246.18V268.725H725.513C726.863 268.725 727.988 268.41 728.888 267.78C729.818 267.15 730.538 265.995 731.048 264.315C731.588 262.635 731.858 260.295 731.858 257.295C731.858 254.235 731.573 251.895 731.003 250.275C730.463 248.655 729.728 247.575 728.798 247.035C727.898 246.465 726.788 246.18 725.468 246.18H723.398ZM766.565 241.905V268.275H776.6L775.97 273H760.85V241.905H766.565ZM799.999 241.905L799.414 246.18H790.279V255.09H798.244V259.32H790.279V268.68H799.999V273H784.564V241.905H799.999ZM815.912 241.905C818.522 241.905 820.772 242.31 822.662 243.12C824.582 243.9 826.127 245.43 827.297 247.71C828.497 249.96 829.097 253.155 829.097 257.295C829.097 263.145 827.927 267.225 825.587 269.535C823.277 271.845 820.247 273 816.497 273H808.982V241.905H815.912ZM814.697 246.18V268.725H816.812C818.162 268.725 819.287 268.41 820.187 267.78C821.117 267.15 821.837 265.995 822.347 264.315C822.887 262.635 823.157 260.295 823.157 257.295C823.157 254.235 822.872 251.895 822.302 250.275C821.762 248.655 821.027 247.575 820.097 247.035C819.197 246.465 818.087 246.18 816.767 246.18H814.697ZM849.347 241.275C851.057 241.275 852.587 241.59 853.937 242.22C855.287 242.82 856.562 243.705 857.762 244.875L854.882 247.845C853.952 247.035 853.082 246.465 852.272 246.135C851.462 245.775 850.547 245.595 849.527 245.595C847.547 245.595 845.987 246.48 844.847 248.25C843.737 250.02 843.182 253.08 843.182 257.43C843.182 260.49 843.377 262.89 843.767 264.63C844.187 266.34 844.787 267.54 845.567 268.23C846.377 268.92 847.427 269.265 848.717 269.265C850.067 269.265 851.297 268.89 852.407 268.14V259.725H848.897L848.312 255.45H857.852V270.66C856.562 271.59 855.122 272.325 853.532 272.865C851.972 273.375 850.382 273.63 848.762 273.63C844.892 273.63 841.997 272.325 840.077 269.715C838.157 267.075 837.197 262.98 837.197 257.43C837.197 253.83 837.722 250.83 838.772 248.43C839.852 246 841.307 244.2 843.137 243.03C844.967 241.86 847.037 241.275 849.347 241.275ZM882.921 241.905L882.336 246.18H873.201V255.09H881.166V259.32H873.201V268.68H882.921V273H867.486V241.905H882.921ZM893.928 266.655C894.888 266.655 895.668 266.985 896.268 267.645C896.898 268.275 897.213 269.085 897.213 270.075C897.213 270.495 897.138 270.945 896.988 271.425C896.868 271.875 896.703 272.385 896.493 272.955C896.283 273.495 896.148 273.87 896.088 274.08L893.703 280.695H890.598L892.218 273.09C891.138 272.31 890.598 271.32 890.598 270.12C890.598 269.13 890.913 268.305 891.543 267.645C892.173 266.985 892.968 266.655 893.928 266.655ZM945.51 273H940.065L939.525 259.86C939.345 255.06 939.255 251.64 939.255 249.6L939.3 247.26L935.025 269.58H929.625L925.17 247.215C925.2 248.115 925.215 249.495 925.215 251.355C925.215 254.505 925.155 257.4 925.035 260.04L924.54 273H919.185L921.165 241.905H928.365L932.415 263.82L936.195 241.905H943.53L945.51 273ZM960.632 241.905V273H954.917V241.905H960.632ZM1002 261.75V265.98H999.167V273H993.947V265.98H983.147V262.155L990.302 242.085L994.982 243.795L988.727 261.75H993.992L994.622 254.055H999.167V261.75H1002ZM1022.43 256.755C1024.35 257.745 1025.75 258.9 1026.62 260.22C1027.49 261.51 1027.92 263.07 1027.92 264.9C1027.92 267.54 1027.07 269.67 1025.36 271.29C1023.65 272.88 1021.29 273.675 1018.29 273.675C1015.38 273.675 1013.09 272.88 1011.41 271.29C1009.76 269.67 1008.93 267.57 1008.93 264.99C1008.93 263.16 1009.35 261.63 1010.19 260.4C1011.03 259.14 1012.31 258.09 1014.02 257.25C1012.55 256.35 1011.5 255.33 1010.87 254.19C1010.24 253.05 1009.92 251.7 1009.92 250.14C1009.92 247.65 1010.7 245.7 1012.26 244.29C1013.82 242.88 1015.85 242.175 1018.34 242.175C1020.89 242.175 1022.96 242.85 1024.55 244.2C1026.14 245.55 1026.93 247.455 1026.93 249.915C1026.93 251.385 1026.57 252.675 1025.85 253.785C1025.16 254.895 1024.02 255.885 1022.43 256.755ZM1018.43 246.045C1017.38 246.045 1016.57 246.36 1016 246.99C1015.46 247.62 1015.19 248.7 1015.19 250.23C1015.19 251.46 1015.44 252.435 1015.95 253.155C1016.46 253.845 1017.32 254.49 1018.52 255.09L1019.19 255.405C1020.12 254.655 1020.77 253.89 1021.13 253.11C1021.49 252.3 1021.67 251.325 1021.67 250.185C1021.67 248.745 1021.4 247.695 1020.86 247.035C1020.32 246.375 1019.51 246.045 1018.43 246.045ZM1018.47 269.58C1019.82 269.58 1020.83 269.205 1021.49 268.455C1022.15 267.675 1022.48 266.49 1022.48 264.9C1022.48 263.46 1022.18 262.35 1021.58 261.57C1020.98 260.76 1019.87 259.98 1018.25 259.23L1017.21 258.78C1016.22 259.47 1015.5 260.31 1015.05 261.3C1014.6 262.26 1014.38 263.43 1014.38 264.81C1014.38 266.49 1014.72 267.705 1015.41 268.455C1016.1 269.205 1017.12 269.58 1018.47 269.58ZM1048.69 256.755C1050.61 257.745 1052.01 258.9 1052.88 260.22C1053.75 261.51 1054.18 263.07 1054.18 264.9C1054.18 267.54 1053.33 269.67 1051.62 271.29C1049.91 272.88 1047.55 273.675 1044.55 273.675C1041.64 273.675 1039.35 272.88 1037.67 271.29C1036.02 269.67 1035.19 267.57 1035.19 264.99C1035.19 263.16 1035.61 261.63 1036.45 260.4C1037.29 259.14 1038.57 258.09 1040.28 257.25C1038.81 256.35 1037.76 255.33 1037.13 254.19C1036.5 253.05 1036.18 251.7 1036.18 250.14C1036.18 247.65 1036.96 245.7 1038.52 244.29C1040.08 242.88 1042.11 242.175 1044.6 242.175C1047.15 242.175 1049.22 242.85 1050.81 244.2C1052.4 245.55 1053.19 247.455 1053.19 249.915C1053.19 251.385 1052.83 252.675 1052.11 253.785C1051.42 254.895 1050.28 255.885 1048.69 256.755ZM1044.69 246.045C1043.64 246.045 1042.83 246.36 1042.26 246.99C1041.72 247.62 1041.45 248.7 1041.45 250.23C1041.45 251.46 1041.7 252.435 1042.21 253.155C1042.72 253.845 1043.58 254.49 1044.78 255.09L1045.45 255.405C1046.38 254.655 1047.03 253.89 1047.39 253.11C1047.75 252.3 1047.93 251.325 1047.93 250.185C1047.93 248.745 1047.66 247.695 1047.12 247.035C1046.58 246.375 1045.77 246.045 1044.69 246.045ZM1044.73 269.58C1046.08 269.58 1047.09 269.205 1047.75 268.455C1048.41 267.675 1048.74 266.49 1048.74 264.9C1048.74 263.46 1048.44 262.35 1047.84 261.57C1047.24 260.76 1046.13 259.98 1044.51 259.23L1043.47 258.78C1042.48 259.47 1041.76 260.31 1041.31 261.3C1040.86 262.26 1040.64 263.43 1040.64 264.81C1040.64 266.49 1040.98 267.705 1041.67 268.455C1042.36 269.205 1043.38 269.58 1044.73 269.58ZM1069.02 242.175C1070.67 242.175 1072.11 242.52 1073.34 243.21C1074.6 243.9 1075.56 244.845 1076.22 246.045C1076.91 247.215 1077.25 248.49 1077.25 249.87C1077.25 253.59 1075.36 255.96 1071.58 256.98C1073.62 257.25 1075.21 258 1076.35 259.23C1077.49 260.43 1078.06 262.14 1078.06 264.36C1078.06 266.04 1077.69 267.6 1076.94 269.04C1076.19 270.45 1075.11 271.575 1073.7 272.415C1072.29 273.255 1070.62 273.675 1068.7 273.675C1066.93 273.675 1065.37 273.315 1064.02 272.595C1062.67 271.875 1061.4 270.795 1060.2 269.355L1063.35 266.655C1064.25 267.615 1065.06 268.305 1065.78 268.725C1066.53 269.145 1067.38 269.355 1068.34 269.355C1069.57 269.355 1070.56 268.905 1071.31 268.005C1072.06 267.105 1072.44 265.815 1072.44 264.135C1072.44 262.365 1072.03 261.09 1071.22 260.31C1070.44 259.53 1069.27 259.14 1067.71 259.14H1065.91L1066.54 255.27H1067.71C1069 255.27 1070.04 254.865 1070.82 254.055C1071.6 253.215 1071.99 252.015 1071.99 250.455C1071.99 249.135 1071.66 248.13 1071 247.44C1070.34 246.72 1069.44 246.36 1068.3 246.36C1066.62 246.36 1065.04 247.17 1063.57 248.79L1060.74 246C1063.14 243.45 1065.9 242.175 1069.02 242.175ZM1100.6 242.715V246.63L1091.42 273.585L1086.47 272.01L1095.11 247.035H1084.67V242.715H1100.6ZM1184.99 236.595V277.68H1179.81V236.595H1184.99ZM1280.16 246.855H1270.98V254.595C1271.64 254.205 1272.27 253.92 1272.87 253.74C1273.47 253.56 1274.11 253.47 1274.8 253.47C1276.9 253.47 1278.61 254.325 1279.93 256.035C1281.25 257.715 1281.91 260.085 1281.91 263.145C1281.91 265.215 1281.51 267.045 1280.7 268.635C1279.92 270.225 1278.79 271.47 1277.32 272.37C1275.88 273.24 1274.2 273.675 1272.28 273.675C1270.51 273.675 1268.97 273.315 1267.65 272.595C1266.36 271.875 1265.17 270.825 1264.09 269.445L1267.2 266.655C1267.98 267.585 1268.73 268.275 1269.45 268.725C1270.2 269.145 1271.07 269.355 1272.06 269.355C1273.41 269.355 1274.44 268.845 1275.16 267.825C1275.91 266.775 1276.29 265.215 1276.29 263.145C1276.29 261.015 1275.97 259.53 1275.34 258.69C1274.71 257.82 1273.83 257.385 1272.69 257.385C1272.15 257.385 1271.64 257.475 1271.16 257.655C1270.68 257.835 1270.14 258.105 1269.54 258.465H1265.76V242.715H1280.83L1280.16 246.855ZM1299.58 242.76V273H1294.18V248.295L1288.78 252.255L1286.31 248.745L1294.63 242.76H1299.58ZM1324.28 242.715V246.63L1315.1 273.585L1310.15 272.01L1318.79 247.035H1308.35V242.715H1324.28ZM1334.76 266.655C1335.78 266.655 1336.61 267 1337.24 267.69C1337.87 268.38 1338.18 269.205 1338.18 270.165C1338.18 271.125 1337.87 271.95 1337.24 272.64C1336.61 273.33 1335.78 273.675 1334.76 273.675C1333.77 273.675 1332.95 273.33 1332.29 272.64C1331.66 271.95 1331.34 271.125 1331.34 270.165C1331.34 269.205 1331.66 268.38 1332.29 267.69C1332.95 267 1333.77 266.655 1334.76 266.655ZM1357.36 252.885C1358.68 252.885 1359.86 253.26 1360.91 254.01C1361.99 254.76 1362.83 255.885 1363.43 257.385C1364.06 258.855 1364.38 260.625 1364.38 262.695C1364.38 266.115 1363.58 268.8 1361.99 270.75C1360.4 272.7 1358.24 273.675 1355.51 273.675C1349.27 273.675 1346.15 268.8 1346.15 259.05C1346.15 255.6 1346.59 252.615 1347.46 250.095C1348.33 247.545 1349.56 245.595 1351.15 244.245C1352.77 242.865 1354.67 242.175 1356.86 242.175C1358.99 242.175 1360.85 242.82 1362.44 244.11L1360.42 247.44C1359.31 246.66 1358.18 246.27 1357.04 246.27C1355.54 246.27 1354.33 247.11 1353.4 248.79C1352.47 250.47 1351.93 252.93 1351.78 256.17C1353.13 253.98 1354.99 252.885 1357.36 252.885ZM1355.47 269.535C1356.61 269.535 1357.45 268.98 1357.99 267.87C1358.56 266.76 1358.86 265.065 1358.89 262.785C1358.89 260.625 1358.62 259.095 1358.08 258.195C1357.57 257.265 1356.83 256.8 1355.87 256.8C1355.12 256.8 1354.39 257.1 1353.67 257.7C1352.98 258.3 1352.35 259.125 1351.78 260.175C1351.81 262.515 1351.94 264.36 1352.18 265.71C1352.45 267.06 1352.84 268.035 1353.35 268.635C1353.89 269.235 1354.6 269.535 1355.47 269.535ZM1378.67 242.175C1380.44 242.175 1381.97 242.535 1383.26 243.255C1384.55 243.975 1385.53 244.965 1386.19 246.225C1386.85 247.455 1387.18 248.85 1387.18 250.41C1387.18 252.15 1386.88 253.8 1386.28 255.36C1385.68 256.92 1384.67 258.705 1383.26 260.715C1381.85 262.695 1379.77 265.32 1377.01 268.59H1387.72L1387.13 273H1371.11V268.905C1374.08 265.185 1376.27 262.32 1377.68 260.31C1379.12 258.27 1380.11 256.545 1380.65 255.135C1381.22 253.725 1381.51 252.255 1381.51 250.725C1381.51 249.345 1381.21 248.31 1380.61 247.62C1380.01 246.9 1379.18 246.54 1378.13 246.54C1377.26 246.54 1376.48 246.78 1375.79 247.26C1375.13 247.71 1374.4 248.475 1373.59 249.555L1370.3 247.08C1372.43 243.81 1375.22 242.175 1378.67 242.175ZM1410.18 242.715V246.63L1401 273.585L1396.05 272.01L1404.69 247.035H1394.25V242.715H1410.18ZM1420.66 266.655C1421.68 266.655 1422.5 267 1423.13 267.69C1423.76 268.38 1424.08 269.205 1424.08 270.165C1424.08 271.125 1423.76 271.95 1423.13 272.64C1422.5 273.33 1421.68 273.675 1420.66 273.675C1419.67 273.675 1418.84 273.33 1418.18 272.64C1417.55 271.95 1417.24 271.125 1417.24 270.165C1417.24 269.205 1417.55 268.38 1418.18 267.69C1418.84 267 1419.67 266.655 1420.66 266.655ZM1439.62 242.175C1442.62 242.175 1444.9 243.21 1446.46 245.28C1448.02 247.32 1448.8 250.215 1448.8 253.965C1448.8 258.045 1448.26 261.39 1447.18 264C1446.1 266.61 1444.46 268.695 1442.27 270.255C1440.08 271.815 1437.17 273.105 1433.54 274.125L1432.37 270.165C1435.67 269.115 1438.16 267.78 1439.84 266.16C1441.52 264.54 1442.57 262.275 1442.99 259.365C1441.55 261.285 1439.81 262.245 1437.77 262.245C1436.48 262.245 1435.28 261.84 1434.17 261.03C1433.09 260.22 1432.21 259.08 1431.52 257.61C1430.86 256.11 1430.53 254.385 1430.53 252.435C1430.53 250.245 1430.92 248.385 1431.7 246.855C1432.51 245.295 1433.59 244.125 1434.94 243.345C1436.32 242.565 1437.88 242.175 1439.62 242.175ZM1439.35 258.24C1440.85 258.24 1442.12 257.22 1443.17 255.18C1443.17 252.87 1443.05 251.07 1442.81 249.78C1442.6 248.49 1442.24 247.575 1441.73 247.035C1441.22 246.465 1440.53 246.18 1439.66 246.18C1437.26 246.18 1436.06 248.235 1436.06 252.345C1436.06 254.355 1436.36 255.84 1436.96 256.8C1437.56 257.76 1438.36 258.24 1439.35 258.24ZM1466.66 242.175C1469.69 242.175 1471.98 243.48 1473.54 246.09C1475.1 248.7 1475.88 252.63 1475.88 257.88C1475.88 268.41 1472.81 273.675 1466.66 273.675C1460.45 273.675 1457.34 268.41 1457.34 257.88C1457.34 247.41 1460.45 242.175 1466.66 242.175ZM1466.66 246.36C1465.79 246.36 1465.08 246.705 1464.54 247.395C1464.03 248.055 1463.64 249.225 1463.37 250.905C1463.13 252.555 1463.01 254.88 1463.01 257.88C1463.01 260.91 1463.13 263.265 1463.37 264.945C1463.64 266.595 1464.03 267.765 1464.54 268.455C1465.08 269.115 1465.79 269.445 1466.66 269.445C1467.53 269.445 1468.22 269.115 1468.73 268.455C1469.24 267.765 1469.61 266.595 1469.85 264.945C1470.09 263.265 1470.21 260.91 1470.21 257.88C1470.21 254.85 1470.09 252.51 1469.85 250.86C1469.61 249.21 1469.24 248.055 1468.73 247.395C1468.22 246.705 1467.53 246.36 1466.66 246.36ZM1497.52 256.755C1499.44 257.745 1500.84 258.9 1501.71 260.22C1502.58 261.51 1503.01 263.07 1503.01 264.9C1503.01 267.54 1502.16 269.67 1500.45 271.29C1498.74 272.88 1496.38 273.675 1493.38 273.675C1490.47 273.675 1488.18 272.88 1486.5 271.29C1484.85 269.67 1484.02 267.57 1484.02 264.99C1484.02 263.16 1484.44 261.63 1485.28 260.4C1486.12 259.14 1487.4 258.09 1489.11 257.25C1487.64 256.35 1486.59 255.33 1485.96 254.19C1485.33 253.05 1485.01 251.7 1485.01 250.14C1485.01 247.65 1485.79 245.7 1487.35 244.29C1488.91 242.88 1490.94 242.175 1493.43 242.175C1495.98 242.175 1498.05 242.85 1499.64 244.2C1501.23 245.55 1502.02 247.455 1502.02 249.915C1502.02 251.385 1501.66 252.675 1500.94 253.785C1500.25 254.895 1499.11 255.885 1497.52 256.755ZM1493.52 246.045C1492.47 246.045 1491.66 246.36 1491.09 246.99C1490.55 247.62 1490.28 248.7 1490.28 250.23C1490.28 251.46 1490.53 252.435 1491.04 253.155C1491.55 253.845 1492.41 254.49 1493.61 255.09L1494.28 255.405C1495.21 254.655 1495.86 253.89 1496.22 253.11C1496.58 252.3 1496.76 251.325 1496.76 250.185C1496.76 248.745 1496.49 247.695 1495.95 247.035C1495.41 246.375 1494.6 246.045 1493.52 246.045ZM1493.56 269.58C1494.91 269.58 1495.92 269.205 1496.58 268.455C1497.24 267.675 1497.57 266.49 1497.57 264.9C1497.57 263.46 1497.27 262.35 1496.67 261.57C1496.07 260.76 1494.96 259.98 1493.34 259.23L1492.3 258.78C1491.31 259.47 1490.59 260.31 1490.14 261.3C1489.69 262.26 1489.47 263.43 1489.47 264.81C1489.47 266.49 1489.81 267.705 1490.5 268.455C1491.19 269.205 1492.21 269.58 1493.56 269.58ZM1521.87 242.76V273H1516.47V248.295L1511.07 252.255L1508.6 248.745L1516.92 242.76H1521.87Z" fill="black"/>
</svg>
