<svg width="1435" height="316" viewBox="0 0 1435 316" fill="none" xmlns="http://www.w3.org/2000/svg">
<path d="M681 149V13" stroke="black" stroke-width="5"/>
<path d="M109.549 14.028C112.453 14.028 115.11 14.5863 117.522 15.703C119.934 16.775 122.011 18.2267 123.753 20.058L117.723 26.423C116.383 25.351 115.155 24.5693 114.038 24.078C112.922 23.5867 111.693 23.341 110.353 23.341C108.567 23.341 107.137 23.81 106.065 24.748C104.993 25.6413 104.189 27.2047 103.653 29.438C103.162 31.6267 102.916 34.7087 102.916 38.684C102.916 42.8827 103.073 46.0763 103.385 48.265C103.743 50.409 104.256 51.883 104.926 52.687C105.641 53.491 106.624 53.893 107.874 53.893C109.036 53.893 110.175 53.5357 111.291 52.821V43.709H108.008L106.802 34.731H123.619V58.047C121.475 59.6997 119.019 60.995 116.249 61.933C113.48 62.8263 110.8 63.273 108.209 63.273C101.554 63.273 96.7299 61.3077 93.7373 57.377C90.7893 53.4017 89.3153 47.1483 89.3153 38.617C89.3153 33.0783 90.1639 28.4777 91.8613 24.815C93.6033 21.1523 95.9929 18.45 99.0303 16.708C102.068 14.9213 105.574 14.028 109.549 14.028ZM161.854 45.183H160.648V62H147.382V15.368H161.653C173.713 15.368 179.743 20.2813 179.743 30.108C179.743 32.7433 179.251 35.1553 178.269 37.344C177.286 39.5327 175.656 41.297 173.378 42.637L182.49 62H168.554L161.854 45.183ZM160.648 36.272H161.854C163.506 36.272 164.668 35.803 165.338 34.865C166.008 33.8823 166.343 32.2967 166.343 30.108C166.343 28.1427 165.963 26.7133 165.204 25.82C164.444 24.882 163.261 24.413 161.653 24.413H160.648V36.272ZM223.584 62L222.244 52.754H214.137L212.797 62H199.598L210.452 15.368H226.13L236.917 62H223.584ZM215.477 43.508H220.904L218.157 24.681L215.477 43.508ZM290.021 62H274.008L266.973 26.825L267.174 28.433C267.621 31.7383 267.978 34.8203 268.246 37.679C268.514 40.493 268.648 43.5973 268.648 46.992V62H257.526V15.368H273.472L280.574 50.61C279.993 46.6793 279.547 43.374 279.234 40.694C278.966 37.9693 278.832 34.7757 278.832 31.113V15.368H290.021V62ZM327.475 15.368C331.584 15.368 335.135 15.971 338.128 17.177C341.165 18.3383 343.6 20.6163 345.431 24.011C347.307 27.4057 348.245 32.2297 348.245 38.483C348.245 47.193 346.458 53.29 342.885 56.774C339.312 60.258 334.354 62 328.011 62H313.874V15.368H327.475ZM327.14 24.681V52.62H328.748C330.267 52.62 331.45 52.1957 332.299 51.347C333.148 50.4983 333.751 49.069 334.108 47.059C334.51 45.0043 334.711 42.1457 334.711 38.483C334.711 34.8203 334.51 32.0063 334.108 30.041C333.751 28.0757 333.148 26.691 332.299 25.887C331.495 25.083 330.378 24.681 328.949 24.681H327.14ZM416.02 15.368V51.816H430.09L428.75 62H402.754V15.368H416.02ZM478.831 15.368L477.491 24.547H465.498V33.86H476.084V42.838H465.498V52.687H478.295V62H452.232V15.368H478.831ZM514.722 15.368C518.831 15.368 522.382 15.971 525.375 17.177C528.412 18.3383 530.846 20.6163 532.678 24.011C534.554 27.4057 535.492 32.2297 535.492 38.483C535.492 47.193 533.705 53.29 530.132 56.774C526.558 60.258 521.6 62 515.258 62H501.121V15.368H514.722ZM514.387 24.681V52.62H515.995C517.513 52.62 518.697 52.1957 519.546 51.347C520.394 50.4983 520.997 49.069 521.355 47.059C521.757 45.0043 521.958 42.1457 521.958 38.483C521.958 34.8203 521.757 32.0063 521.355 30.041C520.997 28.0757 520.394 26.691 519.546 25.887C518.742 25.083 517.625 24.681 516.196 24.681H514.387ZM578.078 14.028C580.982 14.028 583.639 14.5863 586.051 15.703C588.463 16.775 590.54 18.2267 592.282 20.058L586.252 26.423C584.912 25.351 583.684 24.5693 582.567 24.078C581.451 23.5867 580.222 23.341 578.882 23.341C577.096 23.341 575.666 23.81 574.594 24.748C573.522 25.6413 572.718 27.2047 572.182 29.438C571.691 31.6267 571.445 34.7087 571.445 38.684C571.445 42.8827 571.602 46.0763 571.914 48.265C572.272 50.409 572.785 51.883 573.455 52.687C574.17 53.491 575.153 53.893 576.403 53.893C577.565 53.893 578.704 53.5357 579.82 52.821V43.709H576.537L575.331 34.731H592.148V58.047C590.004 59.6997 587.548 60.995 584.778 61.933C582.009 62.8263 579.329 63.273 576.738 63.273C570.083 63.273 565.259 61.3077 562.266 57.377C559.318 53.4017 557.844 47.1483 557.844 38.617C557.844 33.0783 558.693 28.4777 560.39 24.815C562.132 21.1523 564.522 18.45 567.559 16.708C570.597 14.9213 574.103 14.028 578.078 14.028ZM642.51 15.368L641.17 24.547H629.177V33.86H639.763V42.838H629.177V52.687H641.974V62H615.911V15.368H642.51ZM88.7241 142V95.368H114.318L112.978 104.547H101.99V115.267H111.705V124.513H101.99V142H88.7241ZM139.005 142L137.665 132.754H129.558L128.218 142H115.019L125.873 95.368H141.551L152.338 142H139.005ZM130.898 123.508H136.325L133.578 104.681L130.898 123.508ZM201.021 142H188.492L188.559 125.116C188.559 118.863 188.648 112.721 188.827 106.691L185.343 137.243H172.881L169.196 106.691C169.508 113.748 169.665 119.89 169.665 125.116V142H157.337L159.95 95.368H176.03L179.313 125.853L182.127 95.368H198.408L201.021 142ZM222.519 95.368V142H209.253V95.368H222.519ZM245.226 95.368V131.816H259.296L257.956 142H231.96V95.368H245.226ZM295.586 95.368L283.392 124.714V142H270.126V124.781L257.932 95.368H271.734L276.893 114.731L282.186 95.368H295.586ZM332.59 95.368C336.7 95.368 340.251 95.971 343.243 97.177C346.281 98.3383 348.715 100.616 350.546 104.011C352.422 107.406 353.36 112.23 353.36 118.483C353.36 127.193 351.574 133.29 348 136.774C344.427 140.258 339.469 142 333.126 142H318.989V95.368H332.59ZM332.255 104.681V132.62H333.863C335.382 132.62 336.566 132.196 337.414 131.347C338.263 130.498 338.866 129.069 339.223 127.059C339.625 125.004 339.826 122.146 339.826 118.483C339.826 114.82 339.625 112.006 339.223 110.041C338.866 108.076 338.263 106.691 337.414 105.887C336.61 105.083 335.494 104.681 334.064 104.681H332.255ZM388.644 95.368L387.304 104.547H375.311V113.86H385.897V122.838H375.311V132.687H388.108V142H362.045V95.368H388.644ZM429.024 142H413.011L405.976 106.825L406.177 108.433C406.624 111.738 406.981 114.82 407.249 117.679C407.517 120.493 407.651 123.597 407.651 126.992V142H396.529V95.368H412.475L419.577 130.61C418.996 126.679 418.55 123.374 418.237 120.694C417.969 117.969 417.835 114.776 417.835 111.113V95.368H429.024V142ZM468.153 95.368L466.813 105.217H458.706V142H445.44V105.217H436.663V95.368H468.153ZM488.447 95.368V142H475.181V95.368H488.447ZM512.828 94.028C516 94.028 518.791 94.564 521.203 95.636C523.615 96.6633 525.782 98.2267 527.702 100.326L522.208 107.026C519.573 104.659 517.027 103.475 514.57 103.475C513.275 103.475 512.315 103.81 511.689 104.48C511.064 105.15 510.751 106.043 510.751 107.16C510.751 108.277 511.176 109.192 512.024 109.907C512.873 110.622 514.615 111.582 517.25 112.788C520.02 114.083 522.186 115.379 523.749 116.674C525.357 117.925 526.563 119.466 527.367 121.297C528.171 123.084 528.573 125.339 528.573 128.064C528.573 131.057 527.881 133.714 526.496 136.037C525.156 138.36 523.213 140.169 520.667 141.464C518.121 142.715 515.129 143.34 511.689 143.34C508.027 143.34 504.9 142.715 502.309 141.464C499.763 140.213 497.485 138.538 495.475 136.439L501.639 129.538C503.247 130.967 504.744 132.039 506.128 132.754C507.558 133.469 509.032 133.826 510.55 133.826C513.409 133.826 514.838 132.307 514.838 129.27C514.838 127.885 514.414 126.724 513.565 125.786C512.717 124.848 511.265 123.91 509.21 122.972C504.699 120.962 501.55 118.863 499.763 116.674C497.977 114.485 497.083 111.716 497.083 108.366C497.083 105.463 497.753 102.939 499.093 100.795C500.478 98.6063 502.354 96.9313 504.721 95.77C507.133 94.6087 509.836 94.028 512.828 94.028ZM565.062 95.368L563.722 105.217H555.615V142H542.349V105.217H533.572V95.368H565.062ZM586.562 125.183H585.356V142H572.09V95.368H586.361C598.421 95.368 604.451 100.281 604.451 110.108C604.451 112.743 603.959 115.155 602.977 117.344C601.994 119.533 600.364 121.297 598.086 122.637L607.198 142H593.262L586.562 125.183ZM585.356 116.272H586.562C588.214 116.272 589.376 115.803 590.046 114.865C590.716 113.882 591.051 112.297 591.051 110.108C591.051 108.143 590.671 106.713 589.912 105.82C589.152 104.882 587.969 104.413 586.361 104.413H585.356V116.272ZM645.333 95.368L633.139 124.714V142H619.873V124.781L607.679 95.368H621.481L626.64 114.731L631.933 95.368H645.333Z" fill="black"/>
<path d="M735.189 15.837V62H729.092V15.837H735.189ZM756.093 15.837L742.023 36.942L757.098 62H750.197L735.457 37.344L749.594 15.837H756.093ZM790.071 15.837L777.877 44.245V62H771.78V44.312L759.586 15.837H766.085L774.996 38.885L783.84 15.837H790.071ZM803.738 15.837V56.64H819.081L818.411 62H797.641V15.837H803.738ZM848.377 15.837L847.707 20.728H833.302V36.071H845.831V40.962H833.302V57.109H848.645V62H827.205V15.837H848.377ZM895.98 62L893.233 50.275H879.431L876.684 62H870.654L882.647 15.837H890.218L902.211 62H895.98ZM880.57 45.384H892.094L886.332 20.929L880.57 45.384ZM962.19 62H956.428L955.222 41.029C954.642 32.3637 954.396 26.0433 954.485 22.068L946.646 56.774H940.951L932.71 22.001L932.777 25.083C932.777 28.567 932.599 34.0163 932.241 41.431L931.102 62H925.34L928.489 15.837H936.395L943.899 49.672L951.001 15.837H959.108L962.19 62ZM999.855 49.605C999.855 52.0617 999.319 54.295 998.247 56.305C997.219 58.315 995.678 59.9007 993.624 61.062C991.569 62.2233 989.112 62.804 986.254 62.804C981.921 62.804 978.571 61.5757 976.204 59.119C973.836 56.6177 972.653 53.4463 972.653 49.605V15.837H978.75V49.136C978.75 54.8087 981.251 57.645 986.254 57.645C991.256 57.645 993.758 54.8087 993.758 49.136V15.837H999.855V49.605ZM1017.82 15.837V56.64H1033.16L1032.49 62H1011.72V15.837H1017.82ZM1049.93 15.837C1053.68 15.837 1056.92 16.44 1059.64 17.646C1062.41 18.8073 1064.64 21.0853 1066.34 24.48C1068.08 27.83 1068.95 32.5647 1068.95 38.684C1068.95 47.394 1067.26 53.4687 1063.86 56.908C1060.47 60.3027 1056.16 62 1050.93 62H1041.28V15.837H1049.93ZM1047.38 20.728V57.176H1051.33C1053.57 57.176 1055.49 56.6847 1057.1 55.702C1058.75 54.7193 1060.07 52.888 1061.05 50.208C1062.08 47.4833 1062.59 43.642 1062.59 38.684C1062.59 33.6367 1062.05 29.8177 1060.98 27.227C1059.95 24.5917 1058.61 22.8497 1056.96 22.001C1055.35 21.1523 1053.39 20.728 1051.07 20.728H1047.38ZM1100.59 15.837L1099.92 20.728H1085.52V36.071H1098.04V40.962H1085.52V57.109H1100.86V62H1079.42V15.837H1100.59ZM1131.52 62L1122.54 42.235C1122.22 42.2797 1121.76 42.302 1121.13 42.302H1116.98V62H1110.88V15.837H1120.13C1125.53 15.837 1129.55 16.9537 1132.19 19.187C1134.82 21.4203 1136.14 24.6363 1136.14 28.835C1136.14 31.783 1135.45 34.329 1134.06 36.473C1132.68 38.5723 1130.69 40.1133 1128.1 41.096L1138.22 62H1131.52ZM1120.59 37.612C1123.81 37.612 1126.13 36.9197 1127.56 35.535C1128.99 34.1057 1129.71 31.8723 1129.71 28.835C1129.71 26.021 1128.97 23.9663 1127.5 22.671C1126.02 21.331 1123.54 20.661 1120.06 20.661H1116.98V37.612H1120.59ZM1148.66 53.96C1149.87 53.96 1150.85 54.3843 1151.61 55.233C1152.37 56.037 1152.75 57.0643 1152.75 58.315C1152.75 58.8957 1152.64 59.588 1152.42 60.392C1152.19 61.1513 1151.9 62 1151.55 62.938L1147.93 72.988H1144.11L1146.45 62.067C1145.83 61.6203 1145.34 61.0843 1144.98 60.459C1144.62 59.789 1144.44 59.0743 1144.44 58.315C1144.44 57.0643 1144.82 56.037 1145.58 55.233C1146.39 54.3843 1147.41 53.96 1148.66 53.96ZM1188.06 15.837C1191.81 15.837 1195.05 16.44 1197.78 17.646C1200.55 18.8073 1202.78 21.0853 1204.48 24.48C1206.22 27.83 1207.09 32.5647 1207.09 38.684C1207.09 47.394 1205.39 53.4687 1202 56.908C1198.6 60.3027 1194.29 62 1189.07 62H1179.42V15.837H1188.06ZM1185.52 20.728V57.176H1189.47C1191.7 57.176 1193.62 56.6847 1195.23 55.702C1196.88 54.7193 1198.2 52.888 1199.18 50.208C1200.21 47.4833 1200.72 43.642 1200.72 38.684C1200.72 33.6367 1200.19 29.8177 1199.12 27.227C1198.09 24.5917 1196.75 22.8497 1195.1 22.001C1193.49 21.1523 1191.52 20.728 1189.2 20.728H1185.52ZM1226.2 15.837C1229.95 15.837 1233.19 16.44 1235.91 17.646C1238.68 18.8073 1240.91 21.0853 1242.61 24.48C1244.35 27.83 1245.22 32.5647 1245.22 38.684C1245.22 47.394 1243.53 53.4687 1240.13 56.908C1236.74 60.3027 1232.43 62 1227.2 62H1217.55V15.837H1226.2ZM1223.65 20.728V57.176H1227.6C1229.84 57.176 1231.76 56.6847 1233.37 55.702C1235.02 54.7193 1236.34 52.888 1237.32 50.208C1238.35 47.4833 1238.86 43.642 1238.86 38.684C1238.86 33.6367 1238.32 29.8177 1237.25 27.227C1236.22 24.5917 1234.88 22.8497 1233.23 22.001C1231.62 21.1523 1229.66 20.728 1227.34 20.728H1223.65ZM1265.74 15.1C1268.2 15.1 1270.36 15.5467 1272.24 16.44C1274.16 17.2887 1275.92 18.6063 1277.53 20.393L1274.31 23.877C1272.93 22.537 1271.57 21.5767 1270.23 20.996C1268.89 20.3707 1267.41 20.058 1265.81 20.058C1263.88 20.058 1262.32 20.6833 1261.12 21.934C1259.95 23.14 1259.37 24.748 1259.37 26.758C1259.37 28.7233 1259.93 30.3313 1261.05 31.582C1262.21 32.8327 1264.38 34.061 1267.55 35.267C1271.21 36.6517 1273.98 38.3713 1275.86 40.426C1277.73 42.4807 1278.67 45.4063 1278.67 49.203C1278.67 51.6597 1278.09 53.9377 1276.93 56.037C1275.81 58.0917 1274.2 59.7443 1272.1 60.995C1270 62.201 1267.57 62.804 1264.8 62.804C1262.03 62.804 1259.57 62.2903 1257.43 61.263C1255.29 60.2357 1253.34 58.7617 1251.6 56.841L1254.88 53.357C1256.45 54.7863 1257.99 55.8807 1259.51 56.64C1261.07 57.3993 1262.79 57.779 1264.67 57.779C1266.99 57.779 1268.84 57.0197 1270.23 55.501C1271.61 53.9823 1272.3 51.9277 1272.3 49.337C1272.3 47.1037 1271.75 45.317 1270.63 43.977C1269.51 42.637 1267.44 41.4087 1264.4 40.292C1260.51 38.818 1257.65 37.0313 1255.82 34.932C1254.04 32.8327 1253.14 30.1973 1253.14 27.026C1253.14 24.8373 1253.68 22.8273 1254.75 20.996C1255.82 19.1647 1257.32 17.7353 1259.24 16.708C1261.16 15.636 1263.33 15.1 1265.74 15.1ZM737.735 96.837C741.487 96.837 744.725 97.44 747.45 98.646C750.219 99.8073 752.453 102.085 754.15 105.48C755.892 108.83 756.763 113.565 756.763 119.684C756.763 128.394 755.066 134.469 751.671 137.908C748.276 141.303 743.966 143 738.74 143H729.092V96.837H737.735ZM735.189 101.728V138.176H739.142C741.375 138.176 743.296 137.685 744.904 136.702C746.557 135.719 747.874 133.888 748.857 131.208C749.884 128.483 750.398 124.642 750.398 119.684C750.398 114.637 749.862 110.818 748.79 108.227C747.763 105.592 746.423 103.85 744.77 103.001C743.162 102.152 741.197 101.728 738.874 101.728H735.189ZM788.399 96.837L787.729 101.728H773.324V117.071H785.853V121.962H773.324V138.109H788.667V143H767.227V96.837H788.399ZM825.823 143H817.716L803.512 103.671C803.78 106.798 803.981 109.589 804.115 112.046C804.294 114.503 804.383 117.585 804.383 121.292V143H798.688V96.837H806.795L820.999 136.233C820.821 135.563 820.62 133.732 820.396 130.739C820.218 127.746 820.128 124.955 820.128 122.364V96.837H825.823V143ZM865.463 143H857.356L843.152 103.671C843.42 106.798 843.621 109.589 843.755 112.046C843.934 114.503 844.023 117.585 844.023 121.292V143H838.328V96.837H846.435L860.639 136.233C860.461 135.563 860.26 133.732 860.036 130.739C859.858 127.746 859.768 124.955 859.768 122.364V96.837H865.463V143ZM884.065 96.837V143H877.968V96.837H884.065ZM906.655 96.1C909.112 96.1 911.278 96.5467 913.154 97.44C915.075 98.2887 916.839 99.6063 918.447 101.393L915.231 104.877C913.846 103.537 912.484 102.577 911.144 101.996C909.804 101.371 908.33 101.058 906.722 101.058C904.801 101.058 903.238 101.683 902.032 102.934C900.871 104.14 900.29 105.748 900.29 107.758C900.29 109.723 900.848 111.331 901.965 112.582C903.126 113.833 905.293 115.061 908.464 116.267C912.127 117.652 914.896 119.371 916.772 121.426C918.648 123.481 919.586 126.406 919.586 130.203C919.586 132.66 919.005 134.938 917.844 137.037C916.727 139.092 915.119 140.744 913.02 141.995C910.921 143.201 908.486 143.804 905.717 143.804C902.948 143.804 900.491 143.29 898.347 142.263C896.203 141.236 894.26 139.762 892.518 137.841L895.801 134.357C897.364 135.786 898.905 136.881 900.424 137.64C901.987 138.399 903.707 138.779 905.583 138.779C907.906 138.779 909.759 138.02 911.144 136.501C912.529 134.982 913.221 132.928 913.221 130.337C913.221 128.104 912.663 126.317 911.546 124.977C910.429 123.637 908.352 122.409 905.315 121.292C901.429 119.818 898.57 118.031 896.739 115.932C894.952 113.833 894.059 111.197 894.059 108.026C894.059 105.837 894.595 103.827 895.667 101.996C896.739 100.165 898.235 98.7353 900.156 97.708C902.077 96.636 904.243 96.1 906.655 96.1ZM952.624 136.635C952.624 141.057 951.753 144.385 950.011 146.618C948.269 148.896 945.656 150.705 942.172 152.045L940.564 147.757C942.262 146.864 943.512 145.948 944.316 145.01C945.165 144.117 945.746 143.022 946.058 141.727C946.371 140.432 946.527 138.645 946.527 136.367V96.837H952.624V136.635ZM991.476 96.1C993.932 96.1 996.099 96.5467 997.975 97.44C999.895 98.2887 1001.66 99.6063 1003.27 101.393L1000.05 104.877C998.667 103.537 997.305 102.577 995.965 101.996C994.625 101.371 993.151 101.058 991.543 101.058C989.622 101.058 988.059 101.683 986.853 102.934C985.691 104.14 985.111 105.748 985.111 107.758C985.111 109.723 985.669 111.331 986.786 112.582C987.947 113.833 990.113 115.061 993.285 116.267C996.947 117.652 999.717 119.371 1001.59 121.426C1003.47 123.481 1004.41 126.406 1004.41 130.203C1004.41 132.66 1003.83 134.938 1002.66 137.037C1001.55 139.092 999.94 140.744 997.841 141.995C995.741 143.201 993.307 143.804 990.538 143.804C987.768 143.804 985.312 143.29 983.168 142.263C981.024 141.236 979.081 139.762 977.339 137.841L980.622 134.357C982.185 135.786 983.726 136.881 985.245 137.64C986.808 138.399 988.528 138.779 990.404 138.779C992.726 138.779 994.58 138.02 995.965 136.501C997.349 134.982 998.042 132.928 998.042 130.337C998.042 128.104 997.483 126.317 996.367 124.977C995.25 123.637 993.173 122.409 990.136 121.292C986.25 119.818 983.391 118.031 981.56 115.932C979.773 113.833 978.88 111.197 978.88 108.026C978.88 105.837 979.416 103.827 980.488 101.996C981.56 100.165 983.056 98.7353 984.977 97.708C986.897 96.636 989.064 96.1 991.476 96.1ZM1040.47 130.605C1040.47 133.062 1039.93 135.295 1038.86 137.305C1037.83 139.315 1036.29 140.901 1034.23 142.062C1032.18 143.223 1029.72 143.804 1026.86 143.804C1022.53 143.804 1019.18 142.576 1016.81 140.119C1014.45 137.618 1013.26 134.446 1013.26 130.605V96.837H1019.36V130.136C1019.36 135.809 1021.86 138.645 1026.86 138.645C1031.87 138.645 1034.37 135.809 1034.37 130.136V96.837H1040.47V130.605ZM1058.43 96.837V137.64H1073.77L1073.1 143H1052.33V96.837H1058.43ZM1087.99 96.837V137.64H1103.33L1102.66 143H1081.89V96.837H1087.99ZM1117.55 96.837V143H1111.46V96.837H1117.55ZM1156.09 96.837L1144.43 143H1137.4L1125.54 96.837H1131.7L1141.02 136.434L1150.13 96.837H1156.09ZM1183.9 143L1181.15 131.275H1167.35L1164.6 143H1158.57L1170.56 96.837H1178.13L1190.13 143H1183.9ZM1168.49 126.384H1180.01L1174.25 101.929L1168.49 126.384ZM1225.26 143H1217.15L1202.94 103.671C1203.21 106.798 1203.41 109.589 1203.55 112.046C1203.73 114.503 1203.82 117.585 1203.82 121.292V143H1198.12V96.837H1206.23L1220.43 136.233C1220.25 135.563 1220.05 133.732 1219.83 130.739C1219.65 127.746 1219.56 124.955 1219.56 122.364V96.837H1225.26V143ZM1239.57 134.96C1240.78 134.96 1241.76 135.384 1242.52 136.233C1243.28 137.037 1243.66 138.064 1243.66 139.315C1243.66 139.896 1243.55 140.588 1243.32 141.392C1243.1 142.151 1242.81 143 1242.45 143.938L1238.83 153.988H1235.01L1237.36 143.067C1236.73 142.62 1236.24 142.084 1235.88 141.459C1235.53 140.789 1235.35 140.074 1235.35 139.315C1235.35 138.064 1235.73 137.037 1236.49 136.233C1237.29 135.384 1238.32 134.96 1239.57 134.96ZM1278.97 96.837C1282.72 96.837 1285.96 97.44 1288.68 98.646C1291.45 99.8073 1293.68 102.085 1295.38 105.48C1297.12 108.83 1297.99 113.565 1297.99 119.684C1297.99 128.394 1296.3 134.469 1292.9 137.908C1289.51 141.303 1285.2 143 1279.97 143H1270.32V96.837H1278.97ZM1276.42 101.728V138.176H1280.37C1282.61 138.176 1284.53 137.685 1286.14 136.702C1287.79 135.719 1289.11 133.888 1290.09 131.208C1291.12 128.483 1291.63 124.642 1291.63 119.684C1291.63 114.637 1291.09 110.818 1290.02 108.227C1288.99 105.592 1287.65 103.85 1286 103.001C1284.39 102.152 1282.43 101.728 1280.11 101.728H1276.42ZM1317.1 96.837C1320.85 96.837 1324.09 97.44 1326.82 98.646C1329.59 99.8073 1331.82 102.085 1333.52 105.48C1335.26 108.83 1336.13 113.565 1336.13 119.684C1336.13 128.394 1334.43 134.469 1331.04 137.908C1327.64 141.303 1323.33 143 1318.11 143H1308.46V96.837H1317.1ZM1314.56 101.728V138.176H1318.51C1320.74 138.176 1322.66 137.685 1324.27 136.702C1325.92 135.719 1327.24 133.888 1328.22 131.208C1329.25 128.483 1329.76 124.642 1329.76 119.684C1329.76 114.637 1329.23 110.818 1328.16 108.227C1327.13 105.592 1325.79 103.85 1324.14 103.001C1322.53 102.152 1320.56 101.728 1318.24 101.728H1314.56ZM1356.64 96.1C1359.1 96.1 1361.27 96.5467 1363.14 97.44C1365.06 98.2887 1366.83 99.6063 1368.44 101.393L1365.22 104.877C1363.84 103.537 1362.47 102.577 1361.13 101.996C1359.79 101.371 1358.32 101.058 1356.71 101.058C1354.79 101.058 1353.23 101.683 1352.02 102.934C1350.86 104.14 1350.28 105.748 1350.28 107.758C1350.28 109.723 1350.84 111.331 1351.95 112.582C1353.12 113.833 1355.28 115.061 1358.45 116.267C1362.12 117.652 1364.88 119.371 1366.76 121.426C1368.64 123.481 1369.57 126.406 1369.57 130.203C1369.57 132.66 1368.99 134.938 1367.83 137.037C1366.72 139.092 1365.11 140.744 1363.01 141.995C1360.91 143.201 1358.48 143.804 1355.71 143.804C1352.94 143.804 1350.48 143.29 1348.34 142.263C1346.19 141.236 1344.25 139.762 1342.51 137.841L1345.79 134.357C1347.35 135.786 1348.89 136.881 1350.41 137.64C1351.98 138.399 1353.7 138.779 1355.57 138.779C1357.89 138.779 1359.75 138.02 1361.13 136.501C1362.52 134.982 1363.21 132.928 1363.21 130.337C1363.21 128.104 1362.65 126.317 1361.53 124.977C1360.42 123.637 1358.34 122.409 1355.3 121.292C1351.42 119.818 1348.56 118.031 1346.73 115.932C1344.94 113.833 1344.05 111.197 1344.05 108.026C1344.05 105.837 1344.58 103.827 1345.66 101.996C1346.73 100.165 1348.22 98.7353 1350.14 97.708C1352.07 96.636 1354.23 96.1 1356.64 96.1Z" fill="black"/>
<path d="M121.474 220V223.76H118.954V230H114.314V223.76H104.714V220.36L111.074 202.52L115.234 204.04L109.674 220H114.354L114.914 213.16H118.954V220H121.474ZM136.368 203.12V230H131.568V208.04L126.768 211.56L124.568 208.44L131.968 203.12H136.368ZM155.448 212.12C156.621 212.12 157.674 212.453 158.608 213.12C159.568 213.787 160.314 214.787 160.848 216.12C161.408 217.427 161.688 219 161.688 220.84C161.688 223.88 160.981 226.267 159.568 228C158.154 229.733 156.234 230.6 153.808 230.6C148.261 230.6 145.488 226.267 145.488 217.6C145.488 214.533 145.874 211.88 146.648 209.64C147.421 207.373 148.514 205.64 149.928 204.44C151.368 203.213 153.061 202.6 155.008 202.6C156.901 202.6 158.554 203.173 159.968 204.32L158.168 207.28C157.181 206.587 156.181 206.24 155.168 206.24C153.834 206.24 152.754 206.987 151.928 208.48C151.101 209.973 150.621 212.16 150.488 215.04C151.688 213.093 153.341 212.12 155.448 212.12ZM153.768 226.92C154.781 226.92 155.528 226.427 156.008 225.44C156.514 224.453 156.781 222.947 156.808 220.92C156.808 219 156.568 217.64 156.088 216.84C155.634 216.013 154.981 215.6 154.128 215.6C153.461 215.6 152.808 215.867 152.168 216.4C151.554 216.933 150.994 217.667 150.488 218.6C150.514 220.68 150.634 222.32 150.848 223.52C151.088 224.72 151.434 225.587 151.888 226.12C152.368 226.653 152.994 226.92 153.768 226.92ZM195.6 202.36L195.08 206.16H186.96V214.08H194.04V217.84H186.96V226.16H195.6V230H181.88V202.36H195.6ZM228.275 230L223.395 218.84H222.915H220.955V230H215.875V202.36H222.395C229.062 202.36 232.395 205.067 232.395 210.48C232.395 212.16 232.022 213.653 231.275 214.96C230.528 216.24 229.408 217.213 227.915 217.88L233.755 230H228.275ZM222.635 215.16C224.208 215.16 225.342 214.787 226.035 214.04C226.755 213.293 227.115 212.107 227.115 210.48C227.115 208.96 226.742 207.853 225.995 207.16C225.275 206.44 224.075 206.08 222.395 206.08H220.955V215.16H222.635ZM245.785 202.36V230H240.705V202.36H245.785ZM271.908 202.36L265.508 230H259.148L252.508 202.36H257.668L262.388 225.52L266.908 202.36H271.908ZM292.365 202.36L291.845 206.16H283.725V214.08H290.805V217.84H283.725V226.16H292.365V230H278.645V202.36H292.365ZM312.75 230L307.87 218.84H307.39H305.43V230H300.35V202.36H306.87C313.537 202.36 316.87 205.067 316.87 210.48C316.87 212.16 316.497 213.653 315.75 214.96C315.003 216.24 313.883 217.213 312.39 217.88L318.23 230H312.75ZM307.11 215.16C308.683 215.16 309.817 214.787 310.51 214.04C311.23 213.293 311.59 212.107 311.59 210.48C311.59 208.96 311.217 207.853 310.47 207.16C309.75 206.44 308.55 206.08 306.87 206.08H305.43V215.16H307.11ZM344.47 201.8C346.07 201.8 347.484 202.08 348.71 202.64C349.937 203.2 351.07 204.04 352.11 205.16L349.75 207.88C348.924 207.133 348.11 206.573 347.31 206.2C346.537 205.827 345.71 205.64 344.83 205.64C343.817 205.64 343.017 205.96 342.43 206.6C341.844 207.213 341.55 208.027 341.55 209.04C341.55 210.053 341.857 210.88 342.47 211.52C343.084 212.16 344.284 212.827 346.07 213.52C348.364 214.453 350.044 215.547 351.11 216.8C352.204 218.053 352.75 219.827 352.75 222.12C352.75 223.693 352.39 225.133 351.67 226.44C350.95 227.72 349.91 228.733 348.55 229.48C347.217 230.227 345.657 230.6 343.87 230.6C342.03 230.6 340.43 230.28 339.07 229.64C337.71 228.973 336.47 228.04 335.35 226.84L337.91 224.04C338.87 224.893 339.79 225.547 340.67 226C341.55 226.453 342.51 226.68 343.55 226.68C344.777 226.68 345.724 226.307 346.39 225.56C347.084 224.787 347.43 223.747 347.43 222.44C347.43 221.293 347.124 220.36 346.51 219.64C345.924 218.893 344.817 218.213 343.19 217.6C340.737 216.613 338.964 215.48 337.87 214.2C336.804 212.92 336.27 211.32 336.27 209.4C336.27 207.933 336.617 206.627 337.31 205.48C338.03 204.333 339.017 203.44 340.27 202.8C341.524 202.133 342.924 201.8 344.47 201.8ZM374.765 202.36L374.205 206.36H368.525V230H363.445V206.36H357.525V202.36H374.765ZM394.022 230L389.142 218.84H388.662H386.702V230H381.622V202.36H388.142C394.809 202.36 398.142 205.067 398.142 210.48C398.142 212.16 397.769 213.653 397.022 214.96C396.275 216.24 395.155 217.213 393.662 217.88L399.502 230H394.022ZM388.382 215.16C389.955 215.16 391.089 214.787 391.782 214.04C392.502 213.293 392.862 212.107 392.862 210.48C392.862 208.96 392.489 207.853 391.742 207.16C391.022 206.44 389.822 206.08 388.142 206.08H386.702V215.16H388.382ZM420.172 202.36L419.652 206.16H411.532V214.08H418.612V217.84H411.532V226.16H420.172V230H406.452V202.36H420.172ZM441.876 202.36L441.356 206.16H433.236V214.08H440.316V217.84H433.236V226.16H441.876V230H428.156V202.36H441.876ZM465.021 202.36L464.461 206.36H458.781V230H453.701V206.36H447.781V202.36H465.021ZM471.295 224.36C472.149 224.36 472.842 224.653 473.375 225.24C473.935 225.8 474.215 226.52 474.215 227.4C474.215 227.773 474.149 228.173 474.015 228.6C473.909 229 473.762 229.453 473.575 229.96C473.389 230.44 473.269 230.773 473.215 230.96L471.095 236.84H468.335L469.775 230.08C468.815 229.387 468.335 228.507 468.335 227.44C468.335 226.56 468.615 225.827 469.175 225.24C469.735 224.653 470.442 224.36 471.295 224.36ZM504.345 201.8C505.865 201.8 507.225 202.08 508.425 202.64C509.625 203.173 510.759 203.96 511.825 205L509.265 207.64C508.439 206.92 507.665 206.413 506.945 206.12C506.225 205.8 505.412 205.64 504.505 205.64C502.745 205.64 501.359 206.427 500.345 208C499.359 209.573 498.865 212.293 498.865 216.16C498.865 218.88 499.039 221.013 499.385 222.56C499.759 224.08 500.292 225.147 500.985 225.76C501.705 226.373 502.639 226.68 503.785 226.68C504.985 226.68 506.079 226.347 507.065 225.68V218.2H503.945L503.425 214.4H511.905V227.92C510.759 228.747 509.479 229.4 508.065 229.88C506.679 230.333 505.265 230.56 503.825 230.56C500.385 230.56 497.812 229.4 496.105 227.08C494.399 224.733 493.545 221.093 493.545 216.16C493.545 212.96 494.012 210.293 494.945 208.16C495.905 206 497.199 204.4 498.825 203.36C500.452 202.32 502.292 201.8 504.345 201.8ZM532.869 230L527.989 218.84H527.509H525.549V230H520.469V202.36H526.989C533.655 202.36 536.989 205.067 536.989 210.48C536.989 212.16 536.615 213.653 535.869 214.96C535.122 216.24 534.002 217.213 532.509 217.88L538.349 230H532.869ZM527.229 215.16C528.802 215.16 529.935 214.787 530.629 214.04C531.349 213.293 531.709 212.107 531.709 210.48C531.709 208.96 531.335 207.853 530.589 207.16C529.869 206.44 528.669 206.08 526.989 206.08H525.549V215.16H527.229ZM557.698 230L556.338 223.52H549.218L547.898 230H542.818L549.778 202.36H555.938L562.858 230H557.698ZM550.018 219.68H555.578L552.778 206.24L550.018 219.68ZM586.861 230H580.381L573.381 207.36C573.595 209.28 573.755 211.053 573.861 212.68C573.995 214.28 574.061 216.187 574.061 218.4V230H569.581V202.36H576.021L583.021 225C582.861 224.04 582.701 222.68 582.541 220.92C582.408 219.16 582.341 217.373 582.341 215.56V202.36H586.861V230ZM602.212 202.36C604.532 202.36 606.532 202.72 608.212 203.44C609.918 204.133 611.292 205.493 612.332 207.52C613.398 209.52 613.932 212.36 613.932 216.04C613.932 221.24 612.892 224.867 610.812 226.92C608.758 228.973 606.065 230 602.732 230H596.052V202.36H602.212ZM601.132 206.16V226.2H603.012C604.212 226.2 605.212 225.92 606.012 225.36C606.838 224.8 607.478 223.773 607.932 222.28C608.412 220.787 608.652 218.707 608.652 216.04C608.652 213.32 608.398 211.24 607.892 209.8C607.412 208.36 606.758 207.4 605.932 206.92C605.132 206.413 604.145 206.16 602.972 206.16H601.132ZM639.502 202.36V225.8H648.422L647.862 230H634.422V202.36H639.502ZM669.222 202.36L668.702 206.16H660.582V214.08H667.662V217.84H660.582V226.16H669.222V230H655.502V202.36H669.222ZM683.366 202.36C685.686 202.36 687.686 202.72 689.366 203.44C691.073 204.133 692.446 205.493 693.486 207.52C694.553 209.52 695.086 212.36 695.086 216.04C695.086 221.24 694.046 224.867 691.966 226.92C689.913 228.973 687.22 230 683.886 230H677.206V202.36H683.366ZM682.286 206.16V226.2H684.166C685.366 226.2 686.366 225.92 687.166 225.36C687.993 224.8 688.633 223.773 689.086 222.28C689.566 220.787 689.806 218.707 689.806 216.04C689.806 213.32 689.553 211.24 689.046 209.8C688.566 208.36 687.913 207.4 687.086 206.92C686.286 206.413 685.3 206.16 684.126 206.16H682.286ZM713.086 201.8C714.606 201.8 715.966 202.08 717.166 202.64C718.366 203.173 719.499 203.96 720.566 205L718.006 207.64C717.179 206.92 716.406 206.413 715.686 206.12C714.966 205.8 714.153 205.64 713.246 205.64C711.486 205.64 710.099 206.427 709.086 208C708.099 209.573 707.606 212.293 707.606 216.16C707.606 218.88 707.779 221.013 708.126 222.56C708.499 224.08 709.033 225.147 709.726 225.76C710.446 226.373 711.379 226.68 712.526 226.68C713.726 226.68 714.819 226.347 715.806 225.68V218.2H712.686L712.166 214.4H720.646V227.92C719.499 228.747 718.219 229.4 716.806 229.88C715.419 230.333 714.006 230.56 712.566 230.56C709.126 230.56 706.553 229.4 704.846 227.08C703.139 224.733 702.286 221.093 702.286 216.16C702.286 212.96 702.753 210.293 703.686 208.16C704.646 206 705.939 204.4 707.566 203.36C709.193 202.32 711.033 201.8 713.086 201.8ZM742.929 202.36L742.409 206.16H734.289V214.08H741.369V217.84H734.289V226.16H742.929V230H729.209V202.36H742.929ZM752.714 224.36C753.567 224.36 754.261 224.653 754.794 225.24C755.354 225.8 755.634 226.52 755.634 227.4C755.634 227.773 755.567 228.173 755.434 228.6C755.327 229 755.181 229.453 754.994 229.96C754.807 230.44 754.687 230.773 754.634 230.96L752.514 236.84H749.754L751.194 230.08C750.234 229.387 749.754 228.507 749.754 227.44C749.754 226.56 750.034 225.827 750.594 225.24C751.154 224.653 751.861 224.36 752.714 224.36ZM798.564 230H793.724L793.244 218.32C793.084 214.053 793.004 211.013 793.004 209.2L793.044 207.12L789.244 226.96H784.444L780.484 207.08C780.511 207.88 780.524 209.107 780.524 210.76C780.524 213.56 780.471 216.133 780.364 218.48L779.924 230H775.164L776.924 202.36H783.324L786.924 221.84L790.284 202.36H796.804L798.564 230ZM812.007 202.36V230H806.927V202.36H812.007ZM848.78 220V223.76H846.26V230H841.62V223.76H832.02V220.36L838.38 202.52L842.54 204.04L836.98 220H841.66L842.22 213.16H846.26V220H848.78ZM866.938 215.56C868.645 216.44 869.885 217.467 870.658 218.64C871.432 219.787 871.818 221.173 871.818 222.8C871.818 225.147 871.058 227.04 869.538 228.48C868.018 229.893 865.925 230.6 863.258 230.6C860.672 230.6 858.632 229.893 857.138 228.48C855.672 227.04 854.938 225.173 854.938 222.88C854.938 221.253 855.312 219.893 856.058 218.8C856.805 217.68 857.938 216.747 859.458 216C858.152 215.2 857.218 214.293 856.658 213.28C856.098 212.267 855.818 211.067 855.818 209.68C855.818 207.467 856.512 205.733 857.898 204.48C859.285 203.227 861.085 202.6 863.298 202.6C865.565 202.6 867.405 203.2 868.818 204.4C870.232 205.6 870.938 207.293 870.938 209.48C870.938 210.787 870.618 211.933 869.978 212.92C869.365 213.907 868.352 214.787 866.938 215.56ZM863.378 206.04C862.445 206.04 861.725 206.32 861.218 206.88C860.738 207.44 860.498 208.4 860.498 209.76C860.498 210.853 860.725 211.72 861.178 212.36C861.632 212.973 862.392 213.547 863.458 214.08L864.058 214.36C864.885 213.693 865.458 213.013 865.778 212.32C866.098 211.6 866.258 210.733 866.258 209.72C866.258 208.44 866.018 207.507 865.538 206.92C865.058 206.333 864.338 206.04 863.378 206.04ZM863.418 226.96C864.618 226.96 865.512 226.627 866.098 225.96C866.685 225.267 866.978 224.213 866.978 222.8C866.978 221.52 866.712 220.533 866.178 219.84C865.645 219.12 864.658 218.427 863.218 217.76L862.298 217.36C861.418 217.973 860.778 218.72 860.378 219.6C859.978 220.453 859.778 221.493 859.778 222.72C859.778 224.213 860.085 225.293 860.698 225.96C861.312 226.627 862.218 226.96 863.418 226.96ZM890.284 215.56C891.99 216.44 893.23 217.467 894.004 218.64C894.777 219.787 895.164 221.173 895.164 222.8C895.164 225.147 894.404 227.04 892.884 228.48C891.364 229.893 889.27 230.6 886.604 230.6C884.017 230.6 881.977 229.893 880.484 228.48C879.017 227.04 878.284 225.173 878.284 222.88C878.284 221.253 878.657 219.893 879.404 218.8C880.15 217.68 881.284 216.747 882.804 216C881.497 215.2 880.564 214.293 880.004 213.28C879.444 212.267 879.164 211.067 879.164 209.68C879.164 207.467 879.857 205.733 881.244 204.48C882.63 203.227 884.43 202.6 886.644 202.6C888.91 202.6 890.75 203.2 892.164 204.4C893.577 205.6 894.284 207.293 894.284 209.48C894.284 210.787 893.964 211.933 893.324 212.92C892.71 213.907 891.697 214.787 890.284 215.56ZM886.724 206.04C885.79 206.04 885.07 206.32 884.564 206.88C884.084 207.44 883.844 208.4 883.844 209.76C883.844 210.853 884.07 211.72 884.524 212.36C884.977 212.973 885.737 213.547 886.804 214.08L887.404 214.36C888.23 213.693 888.804 213.013 889.124 212.32C889.444 211.6 889.604 210.733 889.604 209.72C889.604 208.44 889.364 207.507 888.884 206.92C888.404 206.333 887.684 206.04 886.724 206.04ZM886.764 226.96C887.964 226.96 888.857 226.627 889.444 225.96C890.03 225.267 890.324 224.213 890.324 222.8C890.324 221.52 890.057 220.533 889.524 219.84C888.99 219.12 888.004 218.427 886.564 217.76L885.644 217.36C884.764 217.973 884.124 218.72 883.724 219.6C883.324 220.453 883.124 221.493 883.124 222.72C883.124 224.213 883.43 225.293 884.044 225.96C884.657 226.627 885.564 226.96 886.764 226.96ZM908.349 202.6C909.816 202.6 911.096 202.907 912.189 203.52C913.309 204.133 914.162 204.973 914.749 206.04C915.362 207.08 915.669 208.213 915.669 209.44C915.669 212.747 913.989 214.853 910.629 215.76C912.442 216 913.856 216.667 914.869 217.76C915.882 218.827 916.389 220.347 916.389 222.32C916.389 223.813 916.056 225.2 915.389 226.48C914.722 227.733 913.762 228.733 912.509 229.48C911.256 230.227 909.776 230.6 908.069 230.6C906.496 230.6 905.109 230.28 903.909 229.64C902.709 229 901.576 228.04 900.509 226.76L903.309 224.36C904.109 225.213 904.829 225.827 905.469 226.2C906.136 226.573 906.896 226.76 907.749 226.76C908.842 226.76 909.722 226.36 910.389 225.56C911.056 224.76 911.389 223.613 911.389 222.12C911.389 220.547 911.029 219.413 910.309 218.72C909.616 218.027 908.576 217.68 907.189 217.68H905.589L906.149 214.24H907.189C908.336 214.24 909.256 213.88 909.949 213.16C910.642 212.413 910.989 211.347 910.989 209.96C910.989 208.787 910.696 207.893 910.109 207.28C909.522 206.64 908.722 206.32 907.709 206.32C906.216 206.32 904.816 207.04 903.509 208.48L900.989 206C903.122 203.733 905.576 202.6 908.349 202.6ZM936.426 203.08V206.56L928.266 230.52L923.866 229.12L931.546 206.92H922.266V203.08H936.426ZM1011.43 197.64V234.16H1006.83V197.64H1011.43ZM1096.03 206.76H1087.87V213.64C1088.45 213.293 1089.01 213.04 1089.55 212.88C1090.08 212.72 1090.65 212.64 1091.27 212.64C1093.13 212.64 1094.65 213.4 1095.83 214.92C1097 216.413 1097.59 218.52 1097.59 221.24C1097.59 223.08 1097.23 224.707 1096.51 226.12C1095.81 227.533 1094.81 228.64 1093.51 229.44C1092.23 230.213 1090.73 230.6 1089.03 230.6C1087.45 230.6 1086.08 230.28 1084.91 229.64C1083.76 229 1082.71 228.067 1081.75 226.84L1084.51 224.36C1085.2 225.187 1085.87 225.8 1086.51 226.2C1087.17 226.573 1087.95 226.76 1088.83 226.76C1090.03 226.76 1090.95 226.307 1091.59 225.4C1092.25 224.467 1092.59 223.08 1092.59 221.24C1092.59 219.347 1092.31 218.027 1091.75 217.28C1091.19 216.507 1090.4 216.12 1089.39 216.12C1088.91 216.12 1088.45 216.2 1088.03 216.36C1087.6 216.52 1087.12 216.76 1086.59 217.08H1083.23V203.08H1096.63L1096.03 206.76ZM1113.29 203.12V230H1108.49V208.04L1103.69 211.56L1101.49 208.44L1108.89 203.12H1113.29ZM1135.25 203.08V206.56L1127.09 230.52L1122.69 229.12L1130.37 206.92H1121.09V203.08H1135.25ZM1144.57 224.36C1145.47 224.36 1146.21 224.667 1146.77 225.28C1147.33 225.893 1147.61 226.627 1147.61 227.48C1147.61 228.333 1147.33 229.067 1146.77 229.68C1146.21 230.293 1145.47 230.6 1144.57 230.6C1143.69 230.6 1142.95 230.293 1142.37 229.68C1141.81 229.067 1141.53 228.333 1141.53 227.48C1141.53 226.627 1141.81 225.893 1142.37 225.28C1142.95 224.667 1143.69 224.36 1144.57 224.36ZM1164.65 212.12C1165.82 212.12 1166.88 212.453 1167.81 213.12C1168.77 213.787 1169.52 214.787 1170.05 216.12C1170.61 217.427 1170.89 219 1170.89 220.84C1170.89 223.88 1170.18 226.267 1168.77 228C1167.36 229.733 1165.44 230.6 1163.01 230.6C1157.46 230.6 1154.69 226.267 1154.69 217.6C1154.69 214.533 1155.08 211.88 1155.85 209.64C1156.62 207.373 1157.72 205.64 1159.13 204.44C1160.57 203.213 1162.26 202.6 1164.21 202.6C1166.1 202.6 1167.76 203.173 1169.17 204.32L1167.37 207.28C1166.38 206.587 1165.38 206.24 1164.37 206.24C1163.04 206.24 1161.96 206.987 1161.13 208.48C1160.3 209.973 1159.82 212.16 1159.69 215.04C1160.89 213.093 1162.54 212.12 1164.65 212.12ZM1162.97 226.92C1163.98 226.92 1164.73 226.427 1165.21 225.44C1165.72 224.453 1165.98 222.947 1166.01 220.92C1166.01 219 1165.77 217.64 1165.29 216.84C1164.84 216.013 1164.18 215.6 1163.33 215.6C1162.66 215.6 1162.01 215.867 1161.37 216.4C1160.76 216.933 1160.2 217.667 1159.69 218.6C1159.72 220.68 1159.84 222.32 1160.05 223.52C1160.29 224.72 1160.64 225.587 1161.09 226.12C1161.57 226.653 1162.2 226.92 1162.97 226.92ZM1183.6 202.6C1185.17 202.6 1186.53 202.92 1187.68 203.56C1188.82 204.2 1189.69 205.08 1190.28 206.2C1190.86 207.293 1191.16 208.533 1191.16 209.92C1191.16 211.467 1190.89 212.933 1190.36 214.32C1189.82 215.707 1188.93 217.293 1187.68 219.08C1186.42 220.84 1184.57 223.173 1182.12 226.08H1191.64L1191.12 230H1176.88V226.36C1179.52 223.053 1181.46 220.507 1182.72 218.72C1184 216.907 1184.88 215.373 1185.36 214.12C1185.86 212.867 1186.12 211.56 1186.12 210.2C1186.12 208.973 1185.85 208.053 1185.32 207.44C1184.78 206.8 1184.05 206.48 1183.12 206.48C1182.34 206.48 1181.65 206.693 1181.04 207.12C1180.45 207.52 1179.8 208.2 1179.08 209.16L1176.16 206.96C1178.05 204.053 1180.53 202.6 1183.6 202.6ZM1211.6 203.08V206.56L1203.44 230.52L1199.04 229.12L1206.72 206.92H1197.44V203.08H1211.6ZM1220.92 224.36C1221.82 224.36 1222.56 224.667 1223.12 225.28C1223.68 225.893 1223.96 226.627 1223.96 227.48C1223.96 228.333 1223.68 229.067 1223.12 229.68C1222.56 230.293 1221.82 230.6 1220.92 230.6C1220.04 230.6 1219.3 230.293 1218.72 229.68C1218.16 229.067 1217.88 228.333 1217.88 227.48C1217.88 226.627 1218.16 225.893 1218.72 225.28C1219.3 224.667 1220.04 224.36 1220.92 224.36ZM1237.77 202.6C1240.44 202.6 1242.47 203.52 1243.85 205.36C1245.24 207.173 1245.93 209.747 1245.93 213.08C1245.93 216.707 1245.45 219.68 1244.49 222C1243.53 224.32 1242.08 226.173 1240.13 227.56C1238.19 228.947 1235.6 230.093 1232.37 231L1231.33 227.48C1234.27 226.547 1236.48 225.36 1237.97 223.92C1239.47 222.48 1240.4 220.467 1240.77 217.88C1239.49 219.587 1237.95 220.44 1236.13 220.44C1234.99 220.44 1233.92 220.08 1232.93 219.36C1231.97 218.64 1231.19 217.627 1230.57 216.32C1229.99 214.987 1229.69 213.453 1229.69 211.72C1229.69 209.773 1230.04 208.12 1230.73 206.76C1231.45 205.373 1232.41 204.333 1233.61 203.64C1234.84 202.947 1236.23 202.6 1237.77 202.6ZM1237.53 216.88C1238.87 216.88 1240 215.973 1240.93 214.16C1240.93 212.107 1240.83 210.507 1240.61 209.36C1240.43 208.213 1240.11 207.4 1239.65 206.92C1239.2 206.413 1238.59 206.16 1237.81 206.16C1235.68 206.16 1234.61 207.987 1234.61 211.64C1234.61 213.427 1234.88 214.747 1235.41 215.6C1235.95 216.453 1236.65 216.88 1237.53 216.88ZM1261.81 202.6C1264.5 202.6 1266.54 203.76 1267.93 206.08C1269.31 208.4 1270.01 211.893 1270.01 216.56C1270.01 225.92 1267.27 230.6 1261.81 230.6C1256.29 230.6 1253.53 225.92 1253.53 216.56C1253.53 207.253 1256.29 202.6 1261.81 202.6ZM1261.81 206.32C1261.03 206.32 1260.41 206.627 1259.93 207.24C1259.47 207.827 1259.13 208.867 1258.89 210.36C1258.67 211.827 1258.57 213.893 1258.57 216.56C1258.57 219.253 1258.67 221.347 1258.89 222.84C1259.13 224.307 1259.47 225.347 1259.93 225.96C1260.41 226.547 1261.03 226.84 1261.81 226.84C1262.58 226.84 1263.19 226.547 1263.65 225.96C1264.1 225.347 1264.43 224.307 1264.65 222.84C1264.86 221.347 1264.97 219.253 1264.97 216.56C1264.97 213.867 1264.86 211.787 1264.65 210.32C1264.43 208.853 1264.1 207.827 1263.65 207.24C1263.19 206.627 1262.58 206.32 1261.81 206.32ZM1289.24 215.56C1290.95 216.44 1292.19 217.467 1292.96 218.64C1293.74 219.787 1294.12 221.173 1294.12 222.8C1294.12 225.147 1293.36 227.04 1291.84 228.48C1290.32 229.893 1288.23 230.6 1285.56 230.6C1282.98 230.6 1280.94 229.893 1279.44 228.48C1277.98 227.04 1277.24 225.173 1277.24 222.88C1277.24 221.253 1277.62 219.893 1278.36 218.8C1279.11 217.68 1280.24 216.747 1281.76 216C1280.46 215.2 1279.52 214.293 1278.96 213.28C1278.4 212.267 1278.12 211.067 1278.12 209.68C1278.12 207.467 1278.82 205.733 1280.2 204.48C1281.59 203.227 1283.39 202.6 1285.6 202.6C1287.87 202.6 1289.71 203.2 1291.12 204.4C1292.54 205.6 1293.24 207.293 1293.24 209.48C1293.24 210.787 1292.92 211.933 1292.28 212.92C1291.67 213.907 1290.66 214.787 1289.24 215.56ZM1285.68 206.04C1284.75 206.04 1284.03 206.32 1283.52 206.88C1283.04 207.44 1282.8 208.4 1282.8 209.76C1282.8 210.853 1283.03 211.72 1283.48 212.36C1283.94 212.973 1284.7 213.547 1285.76 214.08L1286.36 214.36C1287.19 213.693 1287.76 213.013 1288.08 212.32C1288.4 211.6 1288.56 210.733 1288.56 209.72C1288.56 208.44 1288.32 207.507 1287.84 206.92C1287.36 206.333 1286.64 206.04 1285.68 206.04ZM1285.72 226.96C1286.92 226.96 1287.82 226.627 1288.4 225.96C1288.99 225.267 1289.28 224.213 1289.28 222.8C1289.28 221.52 1289.02 220.533 1288.48 219.84C1287.95 219.12 1286.96 218.427 1285.52 217.76L1284.6 217.36C1283.72 217.973 1283.08 218.72 1282.68 219.6C1282.28 220.453 1282.08 221.493 1282.08 222.72C1282.08 224.213 1282.39 225.293 1283 225.96C1283.62 226.627 1284.52 226.96 1285.72 226.96ZM1310.89 203.12V230H1306.09V208.04L1301.29 211.56L1299.09 208.44L1306.49 203.12H1310.89Z" fill="black"/>
</svg>
